<svg xmlns="http://www.w3.org/2000/svg" xmlns:xlink="http://www.w3.org/1999/xlink" width="600" zoomAndPan="magnify" viewBox="0 0 450 89.999999" height="120" preserveAspectRatio="xMidYMid meet" version="1.0"><defs><g/></defs><g fill="#ffffff" fill-opacity="1"><g transform="translate(0.750002, 67.741311)"><g><path d="M 25.890625 0.390625 C 21.523438 0.390625 18.222656 -0.816406 15.984375 -3.234375 C 13.742188 -5.648438 12.625 -8.882812 12.625 -12.9375 C 12.625 -15.226562 12.960938 -18.007812 13.640625 -21.28125 L 18.484375 -43.578125 C 18.585938 -43.992188 18.832031 -45.140625 19.21875 -47.015625 C 19.601562 -48.890625 19.796875 -50.914062 19.796875 -53.09375 C 19.796875 -54.34375 19.550781 -55.28125 19.0625 -55.90625 C 18.570312 -56.53125 17.910156 -56.84375 17.078125 -56.84375 C 15.515625 -56.84375 13.691406 -56.097656 11.609375 -54.609375 C 9.535156 -53.128906 7.351562 -50.859375 5.0625 -47.796875 C 4.332031 -46.804688 3.53125 -46.3125 2.65625 -46.3125 C 1.925781 -46.3125 1.285156 -46.660156 0.734375 -47.359375 C 0.191406 -48.066406 -0.078125 -48.863281 -0.078125 -49.75 C -0.078125 -51.351562 0.648438 -53.171875 2.109375 -55.203125 C 7.410156 -62.484375 13.617188 -66.125 20.734375 -66.125 C 23.910156 -66.125 26.394531 -65.160156 28.1875 -63.234375 C 29.976562 -61.304688 30.875 -58.472656 30.875 -54.734375 C 30.875 -52.078125 30.691406 -49.628906 30.328125 -47.390625 C 29.960938 -45.160156 29.335938 -42.125 28.453125 -38.28125 L 25.265625 -24.015625 C 25.160156 -23.546875 24.976562 -22.710938 24.71875 -21.515625 C 24.457031 -20.316406 24.25 -19.1875 24.09375 -18.125 C 23.9375 -17.0625 23.859375 -16.007812 23.859375 -14.96875 C 23.859375 -13.300781 24.328125 -11.972656 25.265625 -10.984375 C 26.203125 -10.003906 27.523438 -9.515625 29.234375 -9.515625 C 32.359375 -9.515625 35.515625 -11.175781 38.703125 -14.5 C 41.898438 -17.832031 44.863281 -23.203125 47.59375 -30.609375 C 50.320312 -38.015625 52.441406 -47.484375 53.953125 -59.015625 C 54.316406 -61.671875 54.847656 -63.519531 55.546875 -64.5625 C 56.253906 -65.601562 57.617188 -66.125 59.640625 -66.125 C 61.460938 -66.125 62.816406 -65.578125 63.703125 -64.484375 C 64.585938 -63.390625 65.03125 -61.617188 65.03125 -59.171875 C 65.03125 -57.773438 64.859375 -55.929688 64.515625 -53.640625 C 64.179688 -51.359375 63.675781 -48.160156 63 -44.046875 C 61.59375 -36.097656 60.472656 -28.796875 59.640625 -22.140625 C 59.222656 -19.128906 59.015625 -16.894531 59.015625 -15.4375 C 59.015625 -13.300781 59.492188 -11.675781 60.453125 -10.5625 C 61.421875 -9.445312 62.710938 -8.890625 64.328125 -8.890625 C 66.035156 -8.890625 67.707031 -9.457031 69.34375 -10.59375 C 70.988281 -11.738281 72.925781 -13.640625 75.15625 -16.296875 C 75.78125 -17.023438 76.484375 -17.390625 77.265625 -17.390625 C 77.941406 -17.390625 78.472656 -17.078125 78.859375 -16.453125 C 79.253906 -15.828125 79.453125 -14.96875 79.453125 -13.875 C 79.453125 -11.851562 78.957031 -10.242188 77.96875 -9.046875 C 75.269531 -5.765625 72.59375 -3.367188 69.9375 -1.859375 C 67.289062 -0.359375 64.507812 0.390625 61.59375 0.390625 C 57.28125 0.390625 53.976562 -0.710938 51.6875 -2.921875 C 49.40625 -5.128906 48.265625 -8.003906 48.265625 -11.546875 C 48.265625 -13.515625 48.679688 -17.359375 49.515625 -23.078125 C 46.910156 -15.441406 43.617188 -9.617188 39.640625 -5.609375 C 35.671875 -1.609375 31.085938 0.390625 25.890625 0.390625 Z M 25.890625 0.390625 "/></g></g></g><g fill="#ffffff" fill-opacity="1"><g transform="translate(74.784884, 63.90154)"><g><path d="M 6.359375 0.265625 C 5.003906 0.265625 4.050781 -0.445312 3.5 -1.875 C 2.945312 -3.300781 2.671875 -5.582031 2.671875 -8.71875 C 2.671875 -13.351562 3.332031 -17.753906 4.65625 -21.921875 C 4.976562 -22.953125 5.503906 -23.707031 6.234375 -24.1875 C 6.960938 -24.675781 7.984375 -24.921875 9.296875 -24.921875 C 10.015625 -24.921875 10.515625 -24.828125 10.796875 -24.640625 C 11.085938 -24.460938 11.234375 -24.128906 11.234375 -23.640625 C 11.234375 -23.066406 10.960938 -21.78125 10.421875 -19.78125 C 10.066406 -18.351562 9.78125 -17.101562 9.5625 -16.03125 C 9.351562 -14.96875 9.175781 -13.648438 9.03125 -12.078125 C 10.207031 -15.148438 11.523438 -17.644531 12.984375 -19.5625 C 14.453125 -21.488281 15.890625 -22.863281 17.296875 -23.6875 C 18.703125 -24.507812 19.992188 -24.921875 21.171875 -24.921875 C 23.492188 -24.921875 24.65625 -23.757812 24.65625 -21.4375 C 24.65625 -20.050781 24.257812 -17.539062 23.46875 -13.90625 C 22.789062 -10.800781 22.453125 -8.75 22.453125 -7.75 C 22.453125 -6.320312 22.96875 -5.609375 24 -5.609375 C 24.71875 -5.609375 25.566406 -6.046875 26.546875 -6.921875 C 27.523438 -7.796875 28.835938 -9.210938 30.484375 -11.171875 C 30.910156 -11.671875 31.390625 -11.921875 31.921875 -11.921875 C 32.378906 -11.921875 32.742188 -11.707031 33.015625 -11.28125 C 33.285156 -10.851562 33.421875 -10.265625 33.421875 -9.515625 C 33.421875 -8.085938 33.082031 -6.984375 32.40625 -6.203125 C 30.875 -4.316406 29.222656 -2.765625 27.453125 -1.546875 C 25.691406 -0.335938 23.6875 0.265625 21.4375 0.265625 C 19.625 0.265625 18.253906 -0.257812 17.328125 -1.3125 C 16.398438 -2.363281 15.9375 -3.882812 15.9375 -5.875 C 15.9375 -6.875 16.1875 -8.660156 16.6875 -11.234375 C 17.144531 -13.472656 17.375 -15.019531 17.375 -15.875 C 17.375 -16.445312 17.179688 -16.734375 16.796875 -16.734375 C 16.328125 -16.734375 15.671875 -16.132812 14.828125 -14.9375 C 13.992188 -13.75 13.140625 -12.171875 12.265625 -10.203125 C 11.398438 -8.242188 10.695312 -6.179688 10.15625 -4.015625 C 9.769531 -2.335938 9.316406 -1.203125 8.796875 -0.609375 C 8.273438 -0.0234375 7.460938 0.265625 6.359375 0.265625 Z M 6.359375 0.265625 "/></g></g></g><g fill="#ffffff" fill-opacity="1"><g transform="translate(101.303006, 63.90154)"><g><path d="M 12.515625 1.4375 C 10.660156 1.4375 9.242188 1.007812 8.265625 0.15625 C 7.285156 -0.695312 6.796875 -1.660156 6.796875 -2.734375 C 6.796875 -3.648438 7.132812 -4.445312 7.8125 -5.125 C 8.488281 -5.8125 9.484375 -6.15625 10.796875 -6.15625 C 11.265625 -6.15625 11.804688 -6.109375 12.421875 -6.015625 C 13.046875 -5.921875 13.519531 -5.859375 13.84375 -5.828125 C 13.8125 -6.753906 13.609375 -7.625 13.234375 -8.4375 C 12.859375 -9.257812 12.382812 -10.054688 11.8125 -10.828125 C 11.25 -11.597656 10.71875 -12.265625 10.21875 -12.828125 C 9.113281 -10.722656 8.015625 -8.972656 6.921875 -7.578125 C 5.835938 -6.191406 4.65625 -4.878906 3.375 -3.640625 C 2.726562 -2.992188 2.050781 -2.671875 1.34375 -2.671875 C 0.769531 -2.671875 0.304688 -2.875 -0.046875 -3.28125 C -0.410156 -3.695312 -0.59375 -4.207031 -0.59375 -4.8125 C -0.59375 -5.519531 -0.34375 -6.179688 0.15625 -6.796875 L 0.859375 -7.640625 C 2.816406 -10.066406 4.296875 -12.066406 5.296875 -13.640625 C 5.898438 -14.671875 6.609375 -16.050781 7.421875 -17.78125 C 8.242188 -19.507812 9.050781 -21.300781 9.84375 -23.15625 C 10.519531 -24.71875 11.925781 -25.5 14.0625 -25.5 C 15.0625 -25.5 15.753906 -25.410156 16.140625 -25.234375 C 16.535156 -25.054688 16.734375 -24.769531 16.734375 -24.375 C 16.734375 -24.164062 16.660156 -23.828125 16.515625 -23.359375 C 16.378906 -22.898438 16.1875 -22.4375 15.9375 -21.96875 C 15.289062 -20.6875 14.96875 -19.601562 14.96875 -18.71875 C 14.96875 -18.175781 15.15625 -17.582031 15.53125 -16.9375 C 15.90625 -16.300781 16.484375 -15.503906 17.265625 -14.546875 C 18.410156 -13.046875 19.273438 -11.769531 19.859375 -10.71875 C 20.453125 -9.664062 20.75 -8.515625 20.75 -7.265625 C 20.75 -6.910156 20.710938 -6.414062 20.640625 -5.78125 C 22.390625 -6.457031 24.4375 -8.253906 26.78125 -11.171875 C 27.207031 -11.671875 27.691406 -11.921875 28.234375 -11.921875 C 28.691406 -11.921875 29.054688 -11.707031 29.328125 -11.28125 C 29.597656 -10.851562 29.734375 -10.265625 29.734375 -9.515625 C 29.734375 -8.160156 29.394531 -7.054688 28.71875 -6.203125 C 26.9375 -3.992188 25.234375 -2.488281 23.609375 -1.6875 C 21.984375 -0.882812 19.976562 -0.445312 17.59375 -0.375 C 16.164062 0.832031 14.472656 1.4375 12.515625 1.4375 Z M 12.515625 1.4375 "/></g></g></g><g fill="#ffffff" fill-opacity="1"><g transform="translate(124.132112, 63.90154)"><g><path d="M 8.015625 0.265625 C 6.410156 0.265625 5.097656 -0.472656 4.078125 -1.953125 C 3.066406 -3.429688 2.5625 -5.273438 2.5625 -7.484375 C 2.5625 -10.160156 2.738281 -12.609375 3.09375 -14.828125 C 3.457031 -17.054688 4.046875 -19.421875 4.859375 -21.921875 C 5.222656 -22.992188 5.722656 -23.757812 6.359375 -24.21875 C 7.003906 -24.6875 8.019531 -24.921875 9.40625 -24.921875 C 10.195312 -24.921875 10.742188 -24.796875 11.046875 -24.546875 C 11.347656 -24.296875 11.5 -23.921875 11.5 -23.421875 C 11.5 -23.128906 11.300781 -22.164062 10.90625 -20.53125 C 10.550781 -19.207031 10.265625 -18.015625 10.046875 -16.953125 C 9.335938 -13.203125 8.984375 -10.707031 8.984375 -9.46875 C 8.984375 -8.71875 9.070312 -8.191406 9.25 -7.890625 C 9.425781 -7.585938 9.710938 -7.4375 10.109375 -7.4375 C 10.640625 -7.4375 11.304688 -7.96875 12.109375 -9.03125 C 12.910156 -10.101562 13.765625 -11.722656 14.671875 -13.890625 C 15.585938 -16.066406 16.472656 -18.742188 17.328125 -21.921875 C 17.609375 -22.992188 18.039062 -23.757812 18.625 -24.21875 C 19.21875 -24.6875 20.101562 -24.921875 21.28125 -24.921875 C 22.101562 -24.921875 22.671875 -24.820312 22.984375 -24.625 C 23.304688 -24.425781 23.46875 -24.0625 23.46875 -23.53125 C 23.46875 -22.632812 23.023438 -20.191406 22.140625 -16.203125 C 21.140625 -11.640625 20.640625 -8.820312 20.640625 -7.75 C 20.640625 -7.070312 20.78125 -6.546875 21.0625 -6.171875 C 21.351562 -5.796875 21.726562 -5.609375 22.1875 -5.609375 C 22.90625 -5.609375 23.753906 -6.046875 24.734375 -6.921875 C 25.710938 -7.796875 27.019531 -9.210938 28.65625 -11.171875 C 29.082031 -11.671875 29.566406 -11.921875 30.109375 -11.921875 C 30.566406 -11.921875 30.925781 -11.707031 31.1875 -11.28125 C 31.457031 -10.851562 31.59375 -10.265625 31.59375 -9.515625 C 31.59375 -8.085938 31.253906 -6.984375 30.578125 -6.203125 C 29.046875 -4.316406 27.394531 -2.765625 25.625 -1.546875 C 23.863281 -0.335938 21.863281 0.265625 19.625 0.265625 C 17.914062 0.265625 16.660156 -0.390625 15.859375 -1.703125 C 15.054688 -3.023438 14.65625 -4.878906 14.65625 -7.265625 C 14.039062 -4.847656 13.128906 -2.988281 11.921875 -1.6875 C 10.710938 -0.382812 9.410156 0.265625 8.015625 0.265625 Z M 8.015625 0.265625 "/></g></g></g><g fill="#ffffff" fill-opacity="1"><g transform="translate(148.83245, 63.90154)"><g><path d="M 31.125 -11.921875 C 31.582031 -11.921875 31.941406 -11.707031 32.203125 -11.28125 C 32.472656 -10.851562 32.609375 -10.265625 32.609375 -9.515625 C 32.609375 -8.085938 32.269531 -6.984375 31.59375 -6.203125 C 30.0625 -4.316406 28.410156 -2.765625 26.640625 -1.546875 C 24.878906 -0.335938 22.878906 0.265625 20.640625 0.265625 C 18.753906 0.265625 17.222656 -0.410156 16.046875 -1.765625 C 14.015625 -0.441406 11.890625 0.234375 9.671875 0.265625 C 9.210938 7.148438 8.160156 12.898438 6.515625 17.515625 C 4.878906 22.128906 2.476562 24.4375 -0.6875 24.4375 C -2.613281 24.4375 -4.039062 23.738281 -4.96875 22.34375 C -5.894531 20.957031 -6.359375 19.035156 -6.359375 16.578125 C -6.359375 13.078125 -5.554688 9 -3.953125 4.34375 C -2.347656 -0.300781 0.125 -5.421875 3.46875 -11.015625 C 3.46875 -16.222656 3.4375 -19.84375 3.375 -21.875 C 3.332031 -22.90625 3.738281 -23.722656 4.59375 -24.328125 C 5.445312 -24.929688 6.519531 -25.234375 7.8125 -25.234375 C 8.550781 -25.234375 9.085938 -25.082031 9.421875 -24.78125 C 9.765625 -24.476562 9.957031 -23.878906 10 -22.984375 C 10 -22.097656 10.015625 -21.441406 10.046875 -21.015625 C 11.191406 -22.441406 12.316406 -23.460938 13.421875 -24.078125 C 14.523438 -24.703125 15.703125 -25.015625 16.953125 -25.015625 C 18.941406 -25.015625 20.566406 -24.210938 21.828125 -22.609375 C 23.097656 -21.015625 23.734375 -18.914062 23.734375 -16.3125 C 23.734375 -14.414062 23.429688 -12.578125 22.828125 -10.796875 C 22.222656 -9.015625 21.382812 -7.394531 20.3125 -5.9375 C 21.0625 -5.71875 21.6875 -5.609375 22.1875 -5.609375 C 23.363281 -5.609375 24.484375 -6.035156 25.546875 -6.890625 C 26.617188 -7.753906 27.992188 -9.179688 29.671875 -11.171875 C 30.097656 -11.671875 30.582031 -11.921875 31.125 -11.921875 Z M 9.9375 -4.859375 C 11.226562 -5.148438 12.414062 -5.851562 13.5 -6.96875 C 14.582031 -8.09375 15.445312 -9.484375 16.09375 -11.140625 C 16.738281 -12.804688 17.0625 -14.546875 17.0625 -16.359375 C 17.0625 -17.429688 16.84375 -18.242188 16.40625 -18.796875 C 15.976562 -19.347656 15.410156 -19.625 14.703125 -19.625 C 13.421875 -19.625 11.867188 -18.269531 10.046875 -15.5625 C 10.015625 -13.988281 10 -11.6875 10 -8.65625 C 10 -7.019531 9.976562 -5.753906 9.9375 -4.859375 Z M -0.265625 19.1875 C 0.691406 19.1875 1.488281 17.09375 2.125 12.90625 C 2.769531 8.71875 3.1875 3.503906 3.375 -2.734375 C 1.832031 0.835938 0.617188 4.242188 -0.265625 7.484375 C -1.160156 10.722656 -1.609375 13.453125 -1.609375 15.671875 C -1.609375 16.804688 -1.472656 17.675781 -1.203125 18.28125 C -0.929688 18.882812 -0.617188 19.1875 -0.265625 19.1875 Z M -0.265625 19.1875 "/></g></g></g><g fill="#ffffff" fill-opacity="1"><g transform="translate(174.548604, 63.90154)"><g><path d="M 26.40625 -11.921875 C 26.875 -11.921875 27.238281 -11.707031 27.5 -11.28125 C 27.769531 -10.851562 27.90625 -10.265625 27.90625 -9.515625 C 27.90625 -8.085938 27.566406 -6.984375 26.890625 -6.203125 C 25.578125 -4.597656 23.71875 -3.117188 21.3125 -1.765625 C 18.90625 -0.410156 16.328125 0.265625 13.578125 0.265625 C 9.835938 0.265625 6.929688 -0.75 4.859375 -2.78125 C 2.796875 -4.8125 1.765625 -7.59375 1.765625 -11.125 C 1.765625 -13.582031 2.28125 -15.867188 3.3125 -17.984375 C 4.34375 -20.109375 5.773438 -21.796875 7.609375 -23.046875 C 9.453125 -24.296875 11.53125 -24.921875 13.84375 -24.921875 C 15.914062 -24.921875 17.570312 -24.304688 18.8125 -23.078125 C 20.0625 -21.847656 20.6875 -20.179688 20.6875 -18.078125 C 20.6875 -15.617188 19.804688 -13.503906 18.046875 -11.734375 C 16.285156 -9.972656 13.300781 -8.578125 9.09375 -7.546875 C 9.976562 -5.898438 11.671875 -5.078125 14.171875 -5.078125 C 15.773438 -5.078125 17.597656 -5.640625 19.640625 -6.765625 C 21.691406 -7.890625 23.46875 -9.359375 24.96875 -11.171875 C 25.394531 -11.671875 25.875 -11.921875 26.40625 -11.921875 Z M 12.9375 -19.671875 C 11.625 -19.671875 10.507812 -18.90625 9.59375 -17.375 C 8.6875 -15.84375 8.234375 -13.988281 8.234375 -11.8125 L 8.234375 -11.703125 C 10.335938 -12.203125 11.992188 -12.953125 13.203125 -13.953125 C 14.421875 -14.953125 15.03125 -16.113281 15.03125 -17.4375 C 15.03125 -18.113281 14.84375 -18.65625 14.46875 -19.0625 C 14.09375 -19.46875 13.582031 -19.671875 12.9375 -19.671875 Z M 12.9375 -19.671875 "/></g></g></g><g fill="#ffffff" fill-opacity="1"><g transform="translate(195.559927, 63.90154)"><g><path d="M 6.359375 0.265625 C 5.003906 0.265625 4.050781 -0.445312 3.5 -1.875 C 2.945312 -3.300781 2.671875 -5.582031 2.671875 -8.71875 C 2.671875 -13.351562 3.332031 -17.753906 4.65625 -21.921875 C 4.976562 -22.953125 5.503906 -23.707031 6.234375 -24.1875 C 6.960938 -24.675781 7.984375 -24.921875 9.296875 -24.921875 C 10.015625 -24.921875 10.515625 -24.828125 10.796875 -24.640625 C 11.085938 -24.460938 11.234375 -24.128906 11.234375 -23.640625 C 11.234375 -23.066406 10.960938 -21.78125 10.421875 -19.78125 C 10.066406 -18.351562 9.78125 -17.101562 9.5625 -16.03125 C 9.351562 -14.96875 9.175781 -13.648438 9.03125 -12.078125 C 10.207031 -15.148438 11.523438 -17.644531 12.984375 -19.5625 C 14.453125 -21.488281 15.890625 -22.863281 17.296875 -23.6875 C 18.703125 -24.507812 19.992188 -24.921875 21.171875 -24.921875 C 23.492188 -24.921875 24.65625 -23.757812 24.65625 -21.4375 C 24.65625 -20.976562 24.492188 -19.859375 24.171875 -18.078125 C 23.878906 -16.648438 23.734375 -15.757812 23.734375 -15.40625 C 23.734375 -14.15625 24.179688 -13.53125 25.078125 -13.53125 C 26.078125 -13.53125 27.359375 -14.3125 28.921875 -15.875 C 29.390625 -16.34375 29.875 -16.578125 30.375 -16.578125 C 30.832031 -16.578125 31.195312 -16.367188 31.46875 -15.953125 C 31.738281 -15.546875 31.875 -15.003906 31.875 -14.328125 C 31.875 -13.003906 31.515625 -11.972656 30.796875 -11.234375 C 29.796875 -10.191406 28.628906 -9.304688 27.296875 -8.578125 C 25.960938 -7.847656 24.546875 -7.484375 23.046875 -7.484375 C 21.160156 -7.484375 19.722656 -7.960938 18.734375 -8.921875 C 17.753906 -9.890625 17.265625 -11.191406 17.265625 -12.828125 C 17.265625 -13.367188 17.320312 -13.90625 17.4375 -14.4375 C 17.5 -15.144531 17.53125 -15.625 17.53125 -15.875 C 17.53125 -16.445312 17.335938 -16.734375 16.953125 -16.734375 C 16.410156 -16.734375 15.703125 -16.132812 14.828125 -14.9375 C 13.960938 -13.75 13.101562 -12.171875 12.25 -10.203125 C 11.394531 -8.242188 10.695312 -6.179688 10.15625 -4.015625 C 9.769531 -2.335938 9.316406 -1.203125 8.796875 -0.609375 C 8.273438 -0.0234375 7.460938 0.265625 6.359375 0.265625 Z M 6.359375 0.265625 "/></g></g></g><g fill="#ffffff" fill-opacity="1"><g transform="translate(219.886019, 63.90154)"><g><path d="M 29.03125 -16.25 C 29.132812 -16.289062 29.3125 -16.3125 29.5625 -16.3125 C 30.101562 -16.3125 30.515625 -16.128906 30.796875 -15.765625 C 31.078125 -15.410156 31.21875 -14.929688 31.21875 -14.328125 C 31.21875 -13.222656 31.003906 -12.359375 30.578125 -11.734375 C 30.148438 -11.109375 29.507812 -10.65625 28.65625 -10.375 C 27.019531 -9.84375 25.273438 -9.578125 23.421875 -9.578125 C 21.847656 -9.578125 20.367188 -9.789062 18.984375 -10.21875 C 17.953125 -8.539062 16.8125 -6.8125 15.5625 -5.03125 C 14.132812 -3 12.898438 -1.609375 11.859375 -0.859375 C 10.828125 -0.109375 9.65625 0.265625 8.34375 0.265625 C 6.882812 0.265625 5.734375 -0.300781 4.890625 -1.4375 C 4.054688 -2.582031 3.53125 -4.382812 3.3125 -6.84375 C 2.882812 -11.832031 2.671875 -16.195312 2.671875 -19.9375 L 2.671875 -21.8125 C 2.710938 -22.988281 3.035156 -23.804688 3.640625 -24.265625 C 4.242188 -24.734375 5.148438 -24.96875 6.359375 -24.96875 C 7.285156 -24.96875 7.972656 -24.757812 8.421875 -24.34375 C 8.867188 -23.9375 9.09375 -23.253906 9.09375 -22.296875 C 9.09375 -18.191406 9.34375 -12.863281 9.84375 -6.3125 C 11.976562 -9.476562 13.582031 -12.007812 14.65625 -13.90625 C 14.113281 -14.9375 13.84375 -16.164062 13.84375 -17.59375 C 13.84375 -18.800781 14.109375 -19.972656 14.640625 -21.109375 C 15.179688 -22.253906 15.914062 -23.179688 16.84375 -23.890625 C 17.769531 -24.609375 18.820312 -24.96875 20 -24.96875 C 21.03125 -24.96875 21.863281 -24.601562 22.5 -23.875 C 23.144531 -23.144531 23.46875 -22.082031 23.46875 -20.6875 C 23.46875 -19.082031 23.039062 -17.25 22.1875 -15.1875 C 23.539062 -15.257812 25.34375 -15.523438 27.59375 -15.984375 Z M 29.03125 -16.25 "/></g></g></g><g fill="#ffffff" fill-opacity="1"><g transform="translate(243.891326, 63.90154)"><g><path d="M 9.578125 -28.453125 C 8.078125 -28.453125 6.953125 -28.796875 6.203125 -29.484375 C 5.453125 -30.179688 5.078125 -31.15625 5.078125 -32.40625 C 5.078125 -33.65625 5.566406 -34.695312 6.546875 -35.53125 C 7.523438 -36.363281 8.75 -36.78125 10.21875 -36.78125 C 11.53125 -36.78125 12.597656 -36.457031 13.421875 -35.8125 C 14.242188 -35.175781 14.65625 -34.269531 14.65625 -33.09375 C 14.65625 -31.664062 14.191406 -30.535156 13.265625 -29.703125 C 12.335938 -28.867188 11.109375 -28.453125 9.578125 -28.453125 Z M 9.140625 0.265625 C 6.828125 0.265625 5.144531 -0.550781 4.09375 -2.1875 C 3.039062 -3.832031 2.515625 -6.007812 2.515625 -8.71875 C 2.515625 -10.320312 2.71875 -12.378906 3.125 -14.890625 C 3.539062 -17.398438 4.066406 -19.742188 4.703125 -21.921875 C 5.023438 -23.066406 5.453125 -23.851562 5.984375 -24.28125 C 6.523438 -24.707031 7.382812 -24.921875 8.5625 -24.921875 C 10.375 -24.921875 11.28125 -24.3125 11.28125 -23.09375 C 11.28125 -22.207031 10.941406 -20.140625 10.265625 -16.890625 C 9.410156 -12.972656 8.984375 -10.316406 8.984375 -8.921875 C 8.984375 -7.859375 9.125 -7.039062 9.40625 -6.46875 C 9.695312 -5.894531 10.179688 -5.609375 10.859375 -5.609375 C 11.492188 -5.609375 12.289062 -6.050781 13.25 -6.9375 C 14.21875 -7.832031 15.503906 -9.242188 17.109375 -11.171875 C 17.535156 -11.671875 18.015625 -11.921875 18.546875 -11.921875 C 19.015625 -11.921875 19.378906 -11.707031 19.640625 -11.28125 C 19.910156 -10.851562 20.046875 -10.265625 20.046875 -9.515625 C 20.046875 -8.085938 19.707031 -6.984375 19.03125 -6.203125 C 15.5 -1.890625 12.203125 0.265625 9.140625 0.265625 Z M 9.140625 0.265625 "/></g></g></g><g fill="#ffffff" fill-opacity="1"><g transform="translate(257.04345, 63.90154)"><g><path d="M 12.515625 1.4375 C 10.660156 1.4375 9.242188 1.007812 8.265625 0.15625 C 7.285156 -0.695312 6.796875 -1.660156 6.796875 -2.734375 C 6.796875 -3.648438 7.132812 -4.445312 7.8125 -5.125 C 8.488281 -5.8125 9.484375 -6.15625 10.796875 -6.15625 C 11.265625 -6.15625 11.804688 -6.109375 12.421875 -6.015625 C 13.046875 -5.921875 13.519531 -5.859375 13.84375 -5.828125 C 13.8125 -6.753906 13.609375 -7.625 13.234375 -8.4375 C 12.859375 -9.257812 12.382812 -10.054688 11.8125 -10.828125 C 11.25 -11.597656 10.71875 -12.265625 10.21875 -12.828125 C 9.113281 -10.722656 8.015625 -8.972656 6.921875 -7.578125 C 5.835938 -6.191406 4.65625 -4.878906 3.375 -3.640625 C 2.726562 -2.992188 2.050781 -2.671875 1.34375 -2.671875 C 0.769531 -2.671875 0.304688 -2.875 -0.046875 -3.28125 C -0.410156 -3.695312 -0.59375 -4.207031 -0.59375 -4.8125 C -0.59375 -5.519531 -0.34375 -6.179688 0.15625 -6.796875 L 0.859375 -7.640625 C 2.816406 -10.066406 4.296875 -12.066406 5.296875 -13.640625 C 5.898438 -14.671875 6.609375 -16.050781 7.421875 -17.78125 C 8.242188 -19.507812 9.050781 -21.300781 9.84375 -23.15625 C 10.519531 -24.71875 11.925781 -25.5 14.0625 -25.5 C 15.0625 -25.5 15.753906 -25.410156 16.140625 -25.234375 C 16.535156 -25.054688 16.734375 -24.769531 16.734375 -24.375 C 16.734375 -24.164062 16.660156 -23.828125 16.515625 -23.359375 C 16.378906 -22.898438 16.1875 -22.4375 15.9375 -21.96875 C 15.289062 -20.6875 14.96875 -19.601562 14.96875 -18.71875 C 14.96875 -18.175781 15.15625 -17.582031 15.53125 -16.9375 C 15.90625 -16.300781 16.484375 -15.503906 17.265625 -14.546875 C 18.410156 -13.046875 19.273438 -11.769531 19.859375 -10.71875 C 20.453125 -9.664062 20.75 -8.515625 20.75 -7.265625 C 20.75 -6.910156 20.710938 -6.414062 20.640625 -5.78125 C 22.390625 -6.457031 24.4375 -8.253906 26.78125 -11.171875 C 27.207031 -11.671875 27.691406 -11.921875 28.234375 -11.921875 C 28.691406 -11.921875 29.054688 -11.707031 29.328125 -11.28125 C 29.597656 -10.851562 29.734375 -10.265625 29.734375 -9.515625 C 29.734375 -8.160156 29.394531 -7.054688 28.71875 -6.203125 C 26.9375 -3.992188 25.234375 -2.488281 23.609375 -1.6875 C 21.984375 -0.882812 19.976562 -0.445312 17.59375 -0.375 C 16.164062 0.832031 14.472656 1.4375 12.515625 1.4375 Z M 12.515625 1.4375 "/></g></g></g><g fill="#ffffff" fill-opacity="1"><g transform="translate(279.872556, 63.90154)"><g><path d="M 26.40625 -11.921875 C 26.875 -11.921875 27.238281 -11.707031 27.5 -11.28125 C 27.769531 -10.851562 27.90625 -10.265625 27.90625 -9.515625 C 27.90625 -8.085938 27.566406 -6.984375 26.890625 -6.203125 C 25.578125 -4.597656 23.71875 -3.117188 21.3125 -1.765625 C 18.90625 -0.410156 16.328125 0.265625 13.578125 0.265625 C 9.835938 0.265625 6.929688 -0.75 4.859375 -2.78125 C 2.796875 -4.8125 1.765625 -7.59375 1.765625 -11.125 C 1.765625 -13.582031 2.28125 -15.867188 3.3125 -17.984375 C 4.34375 -20.109375 5.773438 -21.796875 7.609375 -23.046875 C 9.453125 -24.296875 11.53125 -24.921875 13.84375 -24.921875 C 15.914062 -24.921875 17.570312 -24.304688 18.8125 -23.078125 C 20.0625 -21.847656 20.6875 -20.179688 20.6875 -18.078125 C 20.6875 -15.617188 19.804688 -13.503906 18.046875 -11.734375 C 16.285156 -9.972656 13.300781 -8.578125 9.09375 -7.546875 C 9.976562 -5.898438 11.671875 -5.078125 14.171875 -5.078125 C 15.773438 -5.078125 17.597656 -5.640625 19.640625 -6.765625 C 21.691406 -7.890625 23.46875 -9.359375 24.96875 -11.171875 C 25.394531 -11.671875 25.875 -11.921875 26.40625 -11.921875 Z M 12.9375 -19.671875 C 11.625 -19.671875 10.507812 -18.90625 9.59375 -17.375 C 8.6875 -15.84375 8.234375 -13.988281 8.234375 -11.8125 L 8.234375 -11.703125 C 10.335938 -12.203125 11.992188 -12.953125 13.203125 -13.953125 C 14.421875 -14.953125 15.03125 -16.113281 15.03125 -17.4375 C 15.03125 -18.113281 14.84375 -18.65625 14.46875 -19.0625 C 14.09375 -19.46875 13.582031 -19.671875 12.9375 -19.671875 Z M 12.9375 -19.671875 "/></g></g></g><g fill="#ffffff" fill-opacity="1"><g transform="translate(300.883867, 63.90154)"><g><path d="M 32.9375 -11.921875 C 33.394531 -11.921875 33.757812 -11.707031 34.03125 -11.28125 C 34.300781 -10.851562 34.4375 -10.265625 34.4375 -9.515625 C 34.4375 -8.085938 34.097656 -6.984375 33.421875 -6.203125 C 31.953125 -4.421875 30.34375 -2.894531 28.59375 -1.625 C 26.851562 -0.363281 25.128906 0.265625 23.421875 0.265625 C 20.710938 0.265625 18.644531 -1.316406 17.21875 -4.484375 C 15.71875 -2.597656 14.40625 -1.332031 13.28125 -0.6875 C 12.164062 -0.0507812 10.859375 0.265625 9.359375 0.265625 C 7.179688 0.265625 5.390625 -0.539062 3.984375 -2.15625 C 2.578125 -3.78125 1.875 -5.894531 1.875 -8.5 C 1.875 -11.351562 2.476562 -14 3.6875 -16.4375 C 4.894531 -18.882812 6.5625 -20.878906 8.6875 -22.421875 C 10.8125 -23.972656 13.191406 -24.894531 15.828125 -25.1875 C 16.503906 -32.101562 17.796875 -38.007812 19.703125 -42.90625 C 21.609375 -47.8125 24.113281 -50.265625 27.21875 -50.265625 C 28.75 -50.265625 30.019531 -49.566406 31.03125 -48.171875 C 32.050781 -46.785156 32.5625 -44.679688 32.5625 -41.859375 C 32.5625 -37.867188 31.582031 -33.203125 29.625 -27.859375 C 27.664062 -22.515625 25.046875 -17.023438 21.765625 -11.390625 C 21.898438 -9.316406 22.207031 -7.832031 22.6875 -6.9375 C 23.175781 -6.050781 23.796875 -5.609375 24.546875 -5.609375 C 25.503906 -5.609375 26.484375 -6.035156 27.484375 -6.890625 C 28.484375 -7.753906 29.820312 -9.179688 31.5 -11.171875 C 31.925781 -11.671875 32.40625 -11.921875 32.9375 -11.921875 Z M 26.625 -45.015625 C 25.945312 -45.015625 25.269531 -43.8125 24.59375 -41.40625 C 23.914062 -39 23.335938 -35.851562 22.859375 -31.96875 C 22.378906 -28.082031 22.03125 -24.019531 21.8125 -19.78125 C 25.800781 -28.476562 27.796875 -35.46875 27.796875 -40.75 C 27.796875 -42.101562 27.679688 -43.148438 27.453125 -43.890625 C 27.222656 -44.640625 26.945312 -45.015625 26.625 -45.015625 Z M 11.234375 -5.140625 C 11.910156 -5.140625 12.585938 -5.414062 13.265625 -5.96875 C 13.941406 -6.519531 14.796875 -7.539062 15.828125 -9.03125 C 15.472656 -10.957031 15.296875 -13.113281 15.296875 -15.5 C 15.296875 -16.363281 15.332031 -17.753906 15.40625 -19.671875 C 13.4375 -19.066406 11.800781 -17.753906 10.5 -15.734375 C 9.207031 -13.722656 8.5625 -11.488281 8.5625 -9.03125 C 8.5625 -6.4375 9.453125 -5.140625 11.234375 -5.140625 Z M 11.234375 -5.140625 "/></g></g></g><g fill="#ff7cde" fill-opacity="1"><g transform="translate(342.399917, 65.583443)"><g><path d="M 32.59375 -28.453125 C 35.789062 -27.648438 38.238281 -26.050781 39.9375 -23.65625 C 41.644531 -21.269531 42.5 -17.984375 42.5 -13.796875 C 42.5 -10.859375 41.847656 -8.296875 40.546875 -6.109375 C 39.242188 -3.929688 37.4375 -2.238281 35.125 -1.03125 C 32.8125 0.175781 30.148438 0.78125 27.140625 0.78125 C 25.054688 0.78125 23.234375 0.359375 21.671875 -0.484375 C 20.117188 -1.328125 18.851562 -2.507812 17.875 -4.03125 C 16.894531 -5.550781 16.238281 -7.328125 15.90625 -9.359375 L 23.078125 -9.359375 C 25.734375 -9.359375 27.679688 -9.9375 28.921875 -11.09375 C 30.171875 -12.25 30.796875 -13.800781 30.796875 -15.75 C 30.796875 -17.675781 30.195312 -19.222656 29 -20.390625 C 27.8125 -21.554688 26.097656 -22.140625 23.859375 -22.140625 L 15.90625 -22.140625 L 15.90625 -14.578125 C 15.90625 -10.210938 14.890625 -6.625 12.859375 -3.8125 C 10.835938 -1.007812 7.953125 0.78125 4.203125 1.5625 L 4.203125 -51.453125 C 4.203125 -52.492188 4.722656 -53.015625 5.765625 -53.015625 L 20.890625 -53.015625 C 26.660156 -53.015625 31.101562 -51.800781 34.21875 -49.375 C 37.34375 -46.945312 38.90625 -43.484375 38.90625 -38.984375 C 38.90625 -36.617188 38.335938 -34.488281 37.203125 -32.59375 C 36.078125 -30.695312 34.539062 -29.316406 32.59375 -28.453125 Z M 15.90625 -31.5 L 20.890625 -31.5 C 23.148438 -31.5 24.804688 -31.992188 25.859375 -32.984375 C 26.910156 -33.972656 27.4375 -35.398438 27.4375 -37.265625 C 27.4375 -39.109375 26.921875 -40.503906 25.890625 -41.453125 C 24.867188 -42.398438 23.203125 -42.875 20.890625 -42.875 L 15.90625 -42.875 Z M 15.90625 -31.5 "/></g></g></g><g fill="#ff7cde" fill-opacity="1"><g transform="translate(386.399029, 66.011674)"><g><path d="M 12.390625 -34.21875 C 12.390625 -32.832031 11.960938 -31.726562 11.109375 -30.90625 C 10.253906 -30.082031 9.117188 -29.671875 7.703125 -29.671875 C 6.304688 -29.671875 5.195312 -30.082031 4.375 -30.90625 C 3.550781 -31.726562 3.140625 -32.832031 3.140625 -34.21875 C 3.140625 -35.570312 3.566406 -36.671875 4.421875 -37.515625 C 5.285156 -38.359375 6.410156 -38.78125 7.796875 -38.78125 C 9.179688 -38.78125 10.289062 -38.359375 11.125 -37.515625 C 11.96875 -36.671875 12.390625 -35.570312 12.390625 -34.21875 Z M 11.46875 -5.234375 C 11.46875 -4.296875 11.703125 -3.625 12.171875 -3.21875 C 12.640625 -2.8125 13.359375 -2.609375 14.328125 -2.609375 C 14.328125 -1.609375 13.957031 -0.738281 13.21875 0 L 2.28125 0 C 1.53125 -0.738281 1.15625 -1.609375 1.15625 -2.609375 C 2.125 -2.609375 2.828125 -2.8125 3.265625 -3.21875 C 3.703125 -3.625 3.921875 -4.3125 3.921875 -5.28125 L 3.921875 -19.3125 C 3.921875 -20.21875 3.703125 -20.863281 3.265625 -21.25 C 2.828125 -21.632812 1.976562 -21.828125 0.71875 -21.828125 L 0.71875 -23.96875 C 1.5 -24.445312 2.816406 -24.953125 4.671875 -25.484375 C 6.523438 -26.015625 8.097656 -26.28125 9.390625 -26.28125 C 10.128906 -26.28125 10.660156 -26.109375 10.984375 -25.765625 C 11.304688 -25.429688 11.46875 -24.863281 11.46875 -24.0625 Z M 11.46875 -5.234375 "/></g></g></g><g fill="#ff7cde" fill-opacity="1"><g transform="translate(401.502167, 66.011674)"><g><path d="M 1.0625 -6.828125 C 1.0625 -8.984375 1.769531 -10.691406 3.1875 -11.953125 C 4.613281 -13.210938 6.710938 -13.84375 9.484375 -13.84375 C 10.453125 -13.84375 11.441406 -13.742188 12.453125 -13.546875 C 13.472656 -13.359375 14.304688 -13.101562 14.953125 -12.78125 L 14.953125 -19.21875 C 14.953125 -20.507812 14.628906 -21.4375 13.984375 -22 C 13.335938 -22.5625 12.46875 -22.84375 11.375 -22.84375 C 10.3125 -22.84375 9.441406 -22.585938 8.765625 -22.078125 C 9.378906 -21.878906 9.835938 -21.546875 10.140625 -21.078125 C 10.441406 -20.609375 10.59375 -20.082031 10.59375 -19.5 C 10.59375 -18.46875 10.222656 -17.628906 9.484375 -16.984375 C 8.742188 -16.335938 7.8125 -16.015625 6.6875 -16.015625 C 5.457031 -16.015625 4.46875 -16.367188 3.71875 -17.078125 C 2.976562 -17.796875 2.609375 -18.71875 2.609375 -19.84375 C 2.609375 -20.976562 2.992188 -22.046875 3.765625 -23.046875 C 4.546875 -24.046875 5.734375 -24.847656 7.328125 -25.453125 C 8.929688 -26.066406 10.910156 -26.375 13.265625 -26.375 C 16.460938 -26.375 18.882812 -25.71875 20.53125 -24.40625 C 22.175781 -23.101562 23 -21.195312 23 -18.6875 L 23 -5.859375 C 23 -4.304688 23.738281 -3.367188 25.21875 -3.046875 L 25.21875 -1.5 C 24.800781 -0.914062 24.109375 -0.460938 23.140625 -0.140625 C 22.171875 0.179688 21.1875 0.34375 20.1875 0.34375 C 17.988281 0.34375 16.4375 -0.414062 15.53125 -1.9375 C 14.789062 -1.289062 13.890625 -0.75 12.828125 -0.3125 C 11.765625 0.125 10.554688 0.34375 9.203125 0.34375 C 6.773438 0.34375 4.8125 -0.320312 3.3125 -1.65625 C 1.8125 -3 1.0625 -4.722656 1.0625 -6.828125 Z M 14.953125 -9.046875 C 14.597656 -9.273438 14.171875 -9.46875 13.671875 -9.625 C 13.171875 -9.789062 12.695312 -9.875 12.25 -9.875 C 11.34375 -9.875 10.597656 -9.59375 10.015625 -9.03125 C 9.441406 -8.46875 9.15625 -7.648438 9.15625 -6.578125 C 9.15625 -5.710938 9.441406 -4.992188 10.015625 -4.421875 C 10.597656 -3.859375 11.375 -3.578125 12.34375 -3.578125 C 12.820312 -3.578125 13.296875 -3.648438 13.765625 -3.796875 C 14.234375 -3.941406 14.628906 -4.128906 14.953125 -4.359375 Z M 14.953125 -9.046875 "/></g></g></g><g fill="#ff7cde" fill-opacity="1"><g transform="translate(427.496987, 66.011674)"><g><path d="M 11.1875 0.484375 C 9.601562 0.484375 8.023438 0.25 6.453125 -0.21875 C 4.890625 -0.6875 3.609375 -1.351562 2.609375 -2.21875 C 1.609375 -3.09375 1.109375 -4.128906 1.109375 -5.328125 C 1.109375 -6.453125 1.429688 -7.359375 2.078125 -8.046875 C 2.722656 -8.742188 3.546875 -9.09375 4.546875 -9.09375 C 5.453125 -9.09375 6.21875 -8.800781 6.84375 -8.21875 C 7.476562 -7.644531 7.796875 -6.890625 7.796875 -5.953125 C 7.796875 -5.535156 7.738281 -5.171875 7.625 -4.859375 C 7.507812 -4.554688 7.304688 -4.226562 7.015625 -3.875 C 7.273438 -3.613281 7.757812 -3.410156 8.46875 -3.265625 C 9.175781 -3.117188 9.9375 -3.046875 10.75 -3.046875 C 11.84375 -3.046875 12.703125 -3.25 13.328125 -3.65625 C 13.960938 -4.0625 14.28125 -4.585938 14.28125 -5.234375 C 14.28125 -6.097656 13.875 -6.84375 13.0625 -7.46875 C 12.257812 -8.101562 10.972656 -8.890625 9.203125 -9.828125 C 7.390625 -10.796875 6.015625 -11.59375 5.078125 -12.21875 C 4.140625 -12.851562 3.304688 -13.707031 2.578125 -14.78125 C 1.859375 -15.863281 1.5 -17.195312 1.5 -18.78125 C 1.5 -20.976562 2.398438 -22.753906 4.203125 -24.109375 C 6.015625 -25.460938 8.519531 -26.140625 11.71875 -26.140625 C 14.84375 -26.140625 17.171875 -25.582031 18.703125 -24.46875 C 20.242188 -23.351562 21.015625 -22.019531 21.015625 -20.46875 C 21.015625 -19.507812 20.695312 -18.722656 20.0625 -18.109375 C 19.4375 -17.492188 18.671875 -17.1875 17.765625 -17.1875 C 16.921875 -17.1875 16.203125 -17.4375 15.609375 -17.9375 C 15.015625 -18.4375 14.71875 -19.085938 14.71875 -19.890625 C 14.71875 -20.316406 14.78125 -20.742188 14.90625 -21.171875 C 15.039062 -21.609375 15.21875 -21.972656 15.4375 -22.265625 C 14.789062 -22.785156 13.820312 -23.046875 12.53125 -23.046875 C 11.5 -23.046875 10.691406 -22.800781 10.109375 -22.3125 C 9.535156 -21.832031 9.25 -21.21875 9.25 -20.46875 C 9.25 -19.46875 9.648438 -18.644531 10.453125 -18 C 11.265625 -17.351562 12.554688 -16.582031 14.328125 -15.6875 C 16.003906 -14.8125 17.328125 -14.050781 18.296875 -13.40625 C 19.265625 -12.757812 20.101562 -11.90625 20.8125 -10.84375 C 21.519531 -9.78125 21.875 -8.472656 21.875 -6.921875 C 21.875 -4.398438 20.847656 -2.535156 18.796875 -1.328125 C 16.753906 -0.117188 14.21875 0.484375 11.1875 0.484375 Z M 11.1875 0.484375 "/></g></g></g></svg>