<svg xmlns="http://www.w3.org/2000/svg" xmlns:xlink="http://www.w3.org/1999/xlink" width="744" zoomAndPan="magnify" viewBox="0 0 558 112.499997" height="150" preserveAspectRatio="xMidYMid meet" version="1.0"><defs><g/><clipPath id="5637f503a3"><path d="M 1.234375 4.996094 L 92.167969 4.996094 L 92.167969 95.929688 L 1.234375 95.929688 Z M 1.234375 4.996094 " clip-rule="nonzero"/></clipPath><clipPath id="7fb5e97274"><path d="M 14.066406 4.996094 L 79.335938 4.996094 C 82.738281 4.996094 86.003906 6.347656 88.410156 8.753906 C 90.816406 11.160156 92.167969 14.425781 92.167969 17.828125 L 92.167969 83.09375 C 92.167969 86.5 90.816406 89.761719 88.410156 92.167969 C 86.003906 94.574219 82.738281 95.929688 79.335938 95.929688 L 14.066406 95.929688 C 10.664062 95.929688 7.398438 94.574219 4.992188 92.167969 C 2.585938 89.761719 1.234375 86.5 1.234375 83.09375 L 1.234375 17.828125 C 1.234375 14.425781 2.585938 11.160156 4.992188 8.753906 C 7.398438 6.347656 10.664062 4.996094 14.066406 4.996094 Z M 14.066406 4.996094 " clip-rule="nonzero"/></clipPath></defs><g fill="#ffffff" fill-opacity="1"><g transform="translate(114.354867, 83.442015)"><g><path d="M 25.3125 0.375 C 21.039062 0.375 17.8125 -0.800781 15.625 -3.15625 C 13.445312 -5.519531 12.359375 -8.6875 12.359375 -12.65625 C 12.359375 -14.894531 12.6875 -17.613281 13.34375 -20.8125 L 18.078125 -42.625 C 18.171875 -43.03125 18.410156 -44.144531 18.796875 -45.96875 C 19.179688 -47.800781 19.375 -49.785156 19.375 -51.921875 C 19.375 -53.140625 19.128906 -54.054688 18.640625 -54.671875 C 18.160156 -55.285156 17.515625 -55.59375 16.703125 -55.59375 C 15.171875 -55.59375 13.390625 -54.863281 11.359375 -53.40625 C 9.328125 -51.957031 7.191406 -49.734375 4.953125 -46.734375 C 4.242188 -45.773438 3.457031 -45.296875 2.59375 -45.296875 C 1.882812 -45.296875 1.257812 -45.632812 0.71875 -46.3125 C 0.1875 -47 -0.078125 -47.773438 -0.078125 -48.640625 C -0.078125 -50.222656 0.632812 -52.003906 2.0625 -53.984375 C 7.25 -61.097656 13.320312 -64.65625 20.28125 -64.65625 C 23.382812 -64.65625 25.8125 -63.710938 27.5625 -61.828125 C 29.3125 -59.953125 30.1875 -57.1875 30.1875 -53.53125 C 30.1875 -50.9375 30.007812 -48.546875 29.65625 -46.359375 C 29.300781 -44.171875 28.691406 -41.195312 27.828125 -37.4375 L 24.703125 -23.484375 C 24.597656 -23.023438 24.421875 -22.210938 24.171875 -21.046875 C 23.921875 -19.878906 23.71875 -18.773438 23.5625 -17.734375 C 23.40625 -16.691406 23.328125 -15.660156 23.328125 -14.640625 C 23.328125 -13.015625 23.785156 -11.71875 24.703125 -10.75 C 25.617188 -9.78125 26.914062 -9.296875 28.59375 -9.296875 C 31.644531 -9.296875 34.734375 -10.921875 37.859375 -14.171875 C 40.984375 -17.429688 43.878906 -22.679688 46.546875 -29.921875 C 49.210938 -37.171875 51.285156 -46.4375 52.765625 -57.71875 C 53.117188 -60.3125 53.640625 -62.113281 54.328125 -63.125 C 55.015625 -64.144531 56.347656 -64.65625 58.328125 -64.65625 C 60.109375 -64.65625 61.429688 -64.117188 62.296875 -63.046875 C 63.160156 -61.984375 63.59375 -60.257812 63.59375 -57.875 C 63.59375 -56.5 63.425781 -54.691406 63.09375 -52.453125 C 62.757812 -50.222656 62.265625 -47.097656 61.609375 -43.078125 C 60.234375 -35.304688 59.140625 -28.164062 58.328125 -21.65625 C 57.921875 -18.707031 57.71875 -16.519531 57.71875 -15.09375 C 57.71875 -13.007812 58.1875 -11.421875 59.125 -10.328125 C 60.070312 -9.234375 61.332031 -8.6875 62.90625 -8.6875 C 64.582031 -8.6875 66.21875 -9.242188 67.8125 -10.359375 C 69.414062 -11.484375 71.3125 -13.34375 73.5 -15.9375 C 74.113281 -16.644531 74.800781 -17 75.5625 -17 C 76.226562 -17 76.75 -16.691406 77.125 -16.078125 C 77.507812 -15.472656 77.703125 -14.640625 77.703125 -13.578125 C 77.703125 -11.585938 77.21875 -10.007812 76.25 -8.84375 C 73.601562 -5.644531 70.984375 -3.304688 68.390625 -1.828125 C 65.796875 -0.359375 63.078125 0.375 60.234375 0.375 C 56.015625 0.375 52.785156 -0.703125 50.546875 -2.859375 C 48.316406 -5.015625 47.203125 -7.820312 47.203125 -11.28125 C 47.203125 -13.21875 47.609375 -16.976562 48.421875 -22.5625 C 45.878906 -15.09375 42.660156 -9.398438 38.765625 -5.484375 C 34.878906 -1.578125 30.394531 0.375 25.3125 0.375 Z M 25.3125 0.375 "/></g></g></g><g fill="#ffffff" fill-opacity="1"><g transform="translate(186.759454, 79.686797)"><g><path d="M 6.21875 0.265625 C 4.894531 0.265625 3.960938 -0.429688 3.421875 -1.828125 C 2.878906 -3.222656 2.609375 -5.453125 2.609375 -8.515625 C 2.609375 -13.046875 3.253906 -17.351562 4.546875 -21.4375 C 4.859375 -22.445312 5.367188 -23.1875 6.078125 -23.65625 C 6.796875 -24.125 7.800781 -24.359375 9.09375 -24.359375 C 9.789062 -24.359375 10.28125 -24.269531 10.5625 -24.09375 C 10.84375 -23.925781 10.984375 -23.597656 10.984375 -23.109375 C 10.984375 -22.546875 10.71875 -21.289062 10.1875 -19.34375 C 9.84375 -17.945312 9.566406 -16.722656 9.359375 -15.671875 C 9.148438 -14.628906 8.972656 -13.34375 8.828125 -11.8125 C 9.984375 -14.8125 11.273438 -17.25 12.703125 -19.125 C 14.128906 -21.007812 15.53125 -22.351562 16.90625 -23.15625 C 18.289062 -23.957031 19.554688 -24.359375 20.703125 -24.359375 C 22.972656 -24.359375 24.109375 -23.226562 24.109375 -20.96875 C 24.109375 -19.601562 23.722656 -17.144531 22.953125 -13.59375 C 22.285156 -10.5625 21.953125 -8.554688 21.953125 -7.578125 C 21.953125 -6.179688 22.457031 -5.484375 23.46875 -5.484375 C 24.164062 -5.484375 24.992188 -5.910156 25.953125 -6.765625 C 26.910156 -7.617188 28.191406 -9.003906 29.796875 -10.921875 C 30.210938 -11.410156 30.6875 -11.65625 31.21875 -11.65625 C 31.664062 -11.65625 32.019531 -11.445312 32.28125 -11.03125 C 32.539062 -10.613281 32.671875 -10.039062 32.671875 -9.3125 C 32.671875 -7.914062 32.34375 -6.832031 31.6875 -6.0625 C 30.1875 -4.21875 28.570312 -2.703125 26.84375 -1.515625 C 25.125 -0.328125 23.164062 0.265625 20.96875 0.265625 C 19.1875 0.265625 17.84375 -0.25 16.9375 -1.28125 C 16.03125 -2.3125 15.578125 -3.800781 15.578125 -5.75 C 15.578125 -6.726562 15.820312 -8.472656 16.3125 -10.984375 C 16.757812 -13.171875 16.984375 -14.6875 16.984375 -15.53125 C 16.984375 -16.082031 16.796875 -16.359375 16.421875 -16.359375 C 15.960938 -16.359375 15.320312 -15.773438 14.5 -14.609375 C 13.6875 -13.441406 12.851562 -11.898438 12 -9.984375 C 11.144531 -8.066406 10.457031 -6.046875 9.9375 -3.921875 C 9.550781 -2.285156 9.101562 -1.175781 8.59375 -0.59375 C 8.09375 -0.0195312 7.300781 0.265625 6.21875 0.265625 Z M 6.21875 0.265625 "/></g></g></g><g fill="#ffffff" fill-opacity="1"><g transform="translate(212.69363, 79.686797)"><g><path d="M 12.234375 1.40625 C 10.421875 1.40625 9.035156 0.988281 8.078125 0.15625 C 7.117188 -0.675781 6.640625 -1.617188 6.640625 -2.671875 C 6.640625 -3.578125 6.96875 -4.359375 7.625 -5.015625 C 8.289062 -5.679688 9.269531 -6.015625 10.5625 -6.015625 C 11.007812 -6.015625 11.535156 -5.96875 12.140625 -5.875 C 12.753906 -5.789062 13.222656 -5.734375 13.546875 -5.703125 C 13.503906 -6.609375 13.300781 -7.460938 12.9375 -8.265625 C 12.570312 -9.066406 12.109375 -9.84375 11.546875 -10.59375 C 10.992188 -11.34375 10.472656 -11.992188 9.984375 -12.546875 C 8.898438 -10.492188 7.828125 -8.785156 6.765625 -7.421875 C 5.703125 -6.066406 4.546875 -4.78125 3.296875 -3.5625 C 2.671875 -2.925781 2.007812 -2.609375 1.3125 -2.609375 C 0.75 -2.609375 0.296875 -2.804688 -0.046875 -3.203125 C -0.398438 -3.609375 -0.578125 -4.109375 -0.578125 -4.703125 C -0.578125 -5.398438 -0.332031 -6.046875 0.15625 -6.640625 L 0.84375 -7.46875 C 2.757812 -9.84375 4.203125 -11.796875 5.171875 -13.328125 C 5.765625 -14.335938 6.460938 -15.6875 7.265625 -17.375 C 8.066406 -19.070312 8.851562 -20.828125 9.625 -22.640625 C 10.28125 -24.171875 11.65625 -24.9375 13.75 -24.9375 C 14.726562 -24.9375 15.40625 -24.847656 15.78125 -24.671875 C 16.164062 -24.503906 16.359375 -24.226562 16.359375 -23.84375 C 16.359375 -23.632812 16.289062 -23.300781 16.15625 -22.84375 C 16.019531 -22.394531 15.828125 -21.941406 15.578125 -21.484375 C 14.953125 -20.234375 14.640625 -19.171875 14.640625 -18.296875 C 14.640625 -17.773438 14.820312 -17.195312 15.1875 -16.5625 C 15.550781 -15.9375 16.117188 -15.15625 16.890625 -14.21875 C 18.003906 -12.757812 18.847656 -11.515625 19.421875 -10.484375 C 19.992188 -9.453125 20.28125 -8.328125 20.28125 -7.109375 C 20.28125 -6.765625 20.25 -6.273438 20.1875 -5.640625 C 21.894531 -6.304688 23.894531 -8.066406 26.1875 -10.921875 C 26.601562 -11.410156 27.078125 -11.65625 27.609375 -11.65625 C 28.054688 -11.65625 28.410156 -11.445312 28.671875 -11.03125 C 28.929688 -10.613281 29.0625 -10.039062 29.0625 -9.3125 C 29.0625 -7.976562 28.734375 -6.894531 28.078125 -6.0625 C 26.328125 -3.90625 24.660156 -2.429688 23.078125 -1.640625 C 21.492188 -0.859375 19.535156 -0.429688 17.203125 -0.359375 C 15.804688 0.816406 14.148438 1.40625 12.234375 1.40625 Z M 12.234375 1.40625 "/></g></g></g><g fill="#ffffff" fill-opacity="1"><g transform="translate(235.020027, 79.686797)"><g><path d="M 7.84375 0.265625 C 6.269531 0.265625 4.988281 -0.457031 4 -1.90625 C 3.007812 -3.351562 2.515625 -5.15625 2.515625 -7.3125 C 2.515625 -9.925781 2.6875 -12.320312 3.03125 -14.5 C 3.382812 -16.6875 3.957031 -19 4.75 -21.4375 C 5.101562 -22.476562 5.59375 -23.222656 6.21875 -23.671875 C 6.84375 -24.128906 7.835938 -24.359375 9.203125 -24.359375 C 9.972656 -24.359375 10.503906 -24.234375 10.796875 -23.984375 C 11.085938 -23.742188 11.234375 -23.382812 11.234375 -22.90625 C 11.234375 -22.625 11.046875 -21.679688 10.671875 -20.078125 C 10.316406 -18.785156 10.035156 -17.617188 9.828125 -16.578125 C 9.128906 -12.910156 8.78125 -10.46875 8.78125 -9.25 C 8.78125 -8.519531 8.867188 -8.003906 9.046875 -7.703125 C 9.222656 -7.410156 9.5 -7.265625 9.875 -7.265625 C 10.40625 -7.265625 11.0625 -7.785156 11.84375 -8.828125 C 12.625 -9.878906 13.457031 -11.46875 14.34375 -13.59375 C 15.238281 -15.71875 16.101562 -18.332031 16.9375 -21.4375 C 17.21875 -22.476562 17.644531 -23.222656 18.21875 -23.671875 C 18.789062 -24.128906 19.65625 -24.359375 20.8125 -24.359375 C 21.613281 -24.359375 22.171875 -24.257812 22.484375 -24.0625 C 22.796875 -23.875 22.953125 -23.519531 22.953125 -23 C 22.953125 -22.132812 22.515625 -19.75 21.640625 -15.84375 C 20.671875 -11.382812 20.1875 -8.628906 20.1875 -7.578125 C 20.1875 -6.921875 20.320312 -6.40625 20.59375 -6.03125 C 20.875 -5.664062 21.242188 -5.484375 21.703125 -5.484375 C 22.398438 -5.484375 23.226562 -5.910156 24.1875 -6.765625 C 25.144531 -7.617188 26.421875 -9.003906 28.015625 -10.921875 C 28.441406 -11.410156 28.914062 -11.65625 29.4375 -11.65625 C 29.882812 -11.65625 30.238281 -11.445312 30.5 -11.03125 C 30.757812 -10.613281 30.890625 -10.039062 30.890625 -9.3125 C 30.890625 -7.914062 30.5625 -6.832031 29.90625 -6.0625 C 28.40625 -4.21875 26.789062 -2.703125 25.0625 -1.515625 C 23.34375 -0.328125 21.382812 0.265625 19.1875 0.265625 C 17.507812 0.265625 16.28125 -0.378906 15.5 -1.671875 C 14.71875 -2.960938 14.328125 -4.773438 14.328125 -7.109375 C 13.734375 -4.742188 12.84375 -2.921875 11.65625 -1.640625 C 10.46875 -0.367188 9.195312 0.265625 7.84375 0.265625 Z M 7.84375 0.265625 "/></g></g></g><g fill="#ffffff" fill-opacity="1"><g transform="translate(259.176449, 79.686797)"><g><path d="M 30.421875 -11.65625 C 30.878906 -11.65625 31.238281 -11.445312 31.5 -11.03125 C 31.757812 -10.613281 31.890625 -10.039062 31.890625 -9.3125 C 31.890625 -7.914062 31.554688 -6.832031 30.890625 -6.0625 C 29.398438 -4.21875 27.789062 -2.703125 26.0625 -1.515625 C 24.332031 -0.328125 22.375 0.265625 20.1875 0.265625 C 18.332031 0.265625 16.832031 -0.394531 15.6875 -1.71875 C 13.695312 -0.4375 11.625 0.222656 9.46875 0.265625 C 9.007812 6.992188 7.976562 12.613281 6.375 17.125 C 4.769531 21.632812 2.421875 23.890625 -0.671875 23.890625 C -2.554688 23.890625 -3.953125 23.207031 -4.859375 21.84375 C -5.765625 20.488281 -6.21875 18.609375 -6.21875 16.203125 C -6.21875 12.785156 -5.429688 8.800781 -3.859375 4.25 C -2.296875 -0.289062 0.117188 -5.296875 3.390625 -10.765625 C 3.390625 -15.859375 3.359375 -19.398438 3.296875 -21.390625 C 3.253906 -22.398438 3.648438 -23.195312 4.484375 -23.78125 C 5.328125 -24.375 6.378906 -24.671875 7.640625 -24.671875 C 8.367188 -24.671875 8.894531 -24.519531 9.21875 -24.21875 C 9.550781 -23.925781 9.738281 -23.347656 9.78125 -22.484375 C 9.78125 -21.609375 9.796875 -20.960938 9.828125 -20.546875 C 10.941406 -21.941406 12.039062 -22.941406 13.125 -23.546875 C 14.207031 -24.160156 15.359375 -24.46875 16.578125 -24.46875 C 18.523438 -24.46875 20.117188 -23.679688 21.359375 -22.109375 C 22.597656 -20.546875 23.21875 -18.492188 23.21875 -15.953125 C 23.21875 -14.097656 22.921875 -12.300781 22.328125 -10.5625 C 21.734375 -8.820312 20.910156 -7.234375 19.859375 -5.796875 C 20.597656 -5.585938 21.210938 -5.484375 21.703125 -5.484375 C 22.847656 -5.484375 23.941406 -5.898438 24.984375 -6.734375 C 26.035156 -7.578125 27.378906 -8.972656 29.015625 -10.921875 C 29.429688 -11.410156 29.898438 -11.65625 30.421875 -11.65625 Z M 9.71875 -4.75 C 10.976562 -5.03125 12.140625 -5.71875 13.203125 -6.8125 C 14.265625 -7.914062 15.109375 -9.273438 15.734375 -10.890625 C 16.359375 -12.515625 16.671875 -14.21875 16.671875 -16 C 16.671875 -17.039062 16.460938 -17.832031 16.046875 -18.375 C 15.628906 -18.914062 15.070312 -19.1875 14.375 -19.1875 C 13.125 -19.1875 11.609375 -17.863281 9.828125 -15.21875 C 9.796875 -13.675781 9.78125 -11.425781 9.78125 -8.46875 C 9.78125 -6.863281 9.757812 -5.625 9.71875 -4.75 Z M -0.265625 18.765625 C 0.679688 18.765625 1.46875 16.71875 2.09375 12.625 C 2.71875 8.53125 3.117188 3.429688 3.296875 -2.671875 C 1.796875 0.816406 0.613281 4.144531 -0.25 7.3125 C -1.125 10.488281 -1.5625 13.15625 -1.5625 15.3125 C -1.5625 16.425781 -1.429688 17.28125 -1.171875 17.875 C -0.910156 18.46875 -0.609375 18.765625 -0.265625 18.765625 Z M -0.265625 18.765625 "/></g></g></g><g fill="#ffffff" fill-opacity="1"><g transform="translate(284.326318, 79.686797)"><g><path d="M 25.828125 -11.65625 C 26.273438 -11.65625 26.628906 -11.445312 26.890625 -11.03125 C 27.160156 -10.613281 27.296875 -10.039062 27.296875 -9.3125 C 27.296875 -7.914062 26.960938 -6.832031 26.296875 -6.0625 C 25.003906 -4.5 23.179688 -3.050781 20.828125 -1.71875 C 18.484375 -0.394531 15.96875 0.265625 13.28125 0.265625 C 9.625 0.265625 6.78125 -0.726562 4.75 -2.71875 C 2.726562 -4.707031 1.71875 -7.425781 1.71875 -10.875 C 1.71875 -13.28125 2.222656 -15.519531 3.234375 -17.59375 C 4.242188 -19.664062 5.644531 -21.3125 7.4375 -22.53125 C 9.238281 -23.75 11.273438 -24.359375 13.546875 -24.359375 C 15.566406 -24.359375 17.1875 -23.753906 18.40625 -22.546875 C 19.625 -21.347656 20.234375 -19.722656 20.234375 -17.671875 C 20.234375 -15.265625 19.367188 -13.195312 17.640625 -11.46875 C 15.921875 -9.75 13.003906 -8.382812 8.890625 -7.375 C 9.753906 -5.769531 11.410156 -4.96875 13.859375 -4.96875 C 15.421875 -4.96875 17.203125 -5.515625 19.203125 -6.609375 C 21.210938 -7.710938 22.953125 -9.148438 24.421875 -10.921875 C 24.835938 -11.410156 25.304688 -11.65625 25.828125 -11.65625 Z M 12.65625 -19.234375 C 11.363281 -19.234375 10.269531 -18.484375 9.375 -16.984375 C 8.488281 -15.492188 8.046875 -13.679688 8.046875 -11.546875 L 8.046875 -11.453125 C 10.109375 -11.941406 11.726562 -12.671875 12.90625 -13.640625 C 14.09375 -14.617188 14.6875 -15.753906 14.6875 -17.046875 C 14.6875 -17.703125 14.503906 -18.226562 14.140625 -18.625 C 13.773438 -19.03125 13.28125 -19.234375 12.65625 -19.234375 Z M 12.65625 -19.234375 "/></g></g></g><g fill="#ffffff" fill-opacity="1"><g transform="translate(304.87496, 79.686797)"><g><path d="M 6.21875 0.265625 C 4.894531 0.265625 3.960938 -0.429688 3.421875 -1.828125 C 2.878906 -3.222656 2.609375 -5.453125 2.609375 -8.515625 C 2.609375 -13.046875 3.253906 -17.351562 4.546875 -21.4375 C 4.859375 -22.445312 5.367188 -23.1875 6.078125 -23.65625 C 6.796875 -24.125 7.800781 -24.359375 9.09375 -24.359375 C 9.789062 -24.359375 10.28125 -24.269531 10.5625 -24.09375 C 10.84375 -23.925781 10.984375 -23.597656 10.984375 -23.109375 C 10.984375 -22.546875 10.71875 -21.289062 10.1875 -19.34375 C 9.84375 -17.945312 9.566406 -16.722656 9.359375 -15.671875 C 9.148438 -14.628906 8.972656 -13.34375 8.828125 -11.8125 C 9.984375 -14.8125 11.273438 -17.25 12.703125 -19.125 C 14.128906 -21.007812 15.53125 -22.351562 16.90625 -23.15625 C 18.289062 -23.957031 19.554688 -24.359375 20.703125 -24.359375 C 22.972656 -24.359375 24.109375 -23.226562 24.109375 -20.96875 C 24.109375 -20.507812 23.945312 -19.410156 23.625 -17.671875 C 23.351562 -16.273438 23.21875 -15.40625 23.21875 -15.0625 C 23.21875 -13.84375 23.648438 -13.234375 24.515625 -13.234375 C 25.492188 -13.234375 26.75 -14 28.28125 -15.53125 C 28.738281 -15.976562 29.210938 -16.203125 29.703125 -16.203125 C 30.148438 -16.203125 30.503906 -16 30.765625 -15.59375 C 31.023438 -15.195312 31.15625 -14.671875 31.15625 -14.015625 C 31.15625 -12.722656 30.804688 -11.710938 30.109375 -10.984375 C 29.140625 -9.972656 28 -9.109375 26.6875 -8.390625 C 25.382812 -7.671875 24 -7.3125 22.53125 -7.3125 C 20.6875 -7.3125 19.285156 -7.78125 18.328125 -8.71875 C 17.367188 -9.664062 16.890625 -10.941406 16.890625 -12.546875 C 16.890625 -13.066406 16.941406 -13.585938 17.046875 -14.109375 C 17.109375 -14.804688 17.140625 -15.28125 17.140625 -15.53125 C 17.140625 -16.082031 16.953125 -16.359375 16.578125 -16.359375 C 16.046875 -16.359375 15.351562 -15.773438 14.5 -14.609375 C 13.65625 -13.441406 12.8125 -11.898438 11.96875 -9.984375 C 11.132812 -8.066406 10.457031 -6.046875 9.9375 -3.921875 C 9.550781 -2.285156 9.101562 -1.175781 8.59375 -0.59375 C 8.09375 -0.0195312 7.300781 0.265625 6.21875 0.265625 Z M 6.21875 0.265625 "/></g></g></g><g fill="#ffffff" fill-opacity="1"><g transform="translate(328.665377, 79.686797)"><g><path d="M 28.390625 -15.890625 C 28.492188 -15.929688 28.664062 -15.953125 28.90625 -15.953125 C 29.4375 -15.953125 29.835938 -15.773438 30.109375 -15.421875 C 30.390625 -15.078125 30.53125 -14.609375 30.53125 -14.015625 C 30.53125 -12.929688 30.320312 -12.082031 29.90625 -11.46875 C 29.488281 -10.863281 28.859375 -10.421875 28.015625 -10.140625 C 26.421875 -9.617188 24.71875 -9.359375 22.90625 -9.359375 C 21.363281 -9.359375 19.914062 -9.566406 18.5625 -9.984375 C 17.550781 -8.347656 16.4375 -6.660156 15.21875 -4.921875 C 13.820312 -2.929688 12.617188 -1.566406 11.609375 -0.828125 C 10.597656 -0.0976562 9.445312 0.265625 8.15625 0.265625 C 6.726562 0.265625 5.601562 -0.289062 4.78125 -1.40625 C 3.96875 -2.519531 3.453125 -4.28125 3.234375 -6.6875 C 2.816406 -11.570312 2.609375 -15.84375 2.609375 -19.5 L 2.609375 -21.328125 C 2.648438 -22.484375 2.960938 -23.285156 3.546875 -23.734375 C 4.140625 -24.191406 5.03125 -24.421875 6.21875 -24.421875 C 7.125 -24.421875 7.796875 -24.21875 8.234375 -23.8125 C 8.671875 -23.414062 8.890625 -22.742188 8.890625 -21.796875 C 8.890625 -17.785156 9.132812 -12.578125 9.625 -6.171875 C 11.707031 -9.273438 13.273438 -11.75 14.328125 -13.59375 C 13.804688 -14.601562 13.546875 -15.804688 13.546875 -17.203125 C 13.546875 -18.390625 13.804688 -19.539062 14.328125 -20.65625 C 14.847656 -21.769531 15.5625 -22.675781 16.46875 -23.375 C 17.375 -24.070312 18.398438 -24.421875 19.546875 -24.421875 C 20.554688 -24.421875 21.375 -24.0625 22 -23.34375 C 22.632812 -22.625 22.953125 -21.585938 22.953125 -20.234375 C 22.953125 -18.660156 22.535156 -16.863281 21.703125 -14.84375 C 23.023438 -14.914062 24.785156 -15.175781 26.984375 -15.625 Z M 28.390625 -15.890625 "/></g></g></g><g fill="#ffffff" fill-opacity="1"><g transform="translate(352.142073, 79.686797)"><g><path d="M 9.359375 -27.8125 C 7.890625 -27.8125 6.789062 -28.148438 6.0625 -28.828125 C 5.332031 -29.515625 4.96875 -30.46875 4.96875 -31.6875 C 4.96875 -32.90625 5.445312 -33.921875 6.40625 -34.734375 C 7.363281 -35.554688 8.554688 -35.96875 9.984375 -35.96875 C 11.273438 -35.96875 12.320312 -35.65625 13.125 -35.03125 C 13.925781 -34.40625 14.328125 -33.515625 14.328125 -32.359375 C 14.328125 -30.960938 13.875 -29.851562 12.96875 -29.03125 C 12.0625 -28.21875 10.859375 -27.8125 9.359375 -27.8125 Z M 8.9375 0.265625 C 6.675781 0.265625 5.03125 -0.535156 4 -2.140625 C 2.96875 -3.742188 2.453125 -5.867188 2.453125 -8.515625 C 2.453125 -10.085938 2.648438 -12.101562 3.046875 -14.5625 C 3.453125 -17.019531 3.96875 -19.3125 4.59375 -21.4375 C 4.914062 -22.550781 5.335938 -23.316406 5.859375 -23.734375 C 6.378906 -24.148438 7.210938 -24.359375 8.359375 -24.359375 C 10.140625 -24.359375 11.03125 -23.765625 11.03125 -22.578125 C 11.03125 -21.710938 10.695312 -19.691406 10.03125 -16.515625 C 9.195312 -12.679688 8.78125 -10.085938 8.78125 -8.734375 C 8.78125 -7.679688 8.921875 -6.875 9.203125 -6.3125 C 9.484375 -5.757812 9.953125 -5.484375 10.609375 -5.484375 C 11.234375 -5.484375 12.015625 -5.921875 12.953125 -6.796875 C 13.898438 -7.671875 15.160156 -9.046875 16.734375 -10.921875 C 17.148438 -11.410156 17.617188 -11.65625 18.140625 -11.65625 C 18.597656 -11.65625 18.957031 -11.445312 19.21875 -11.03125 C 19.476562 -10.613281 19.609375 -10.039062 19.609375 -9.3125 C 19.609375 -7.914062 19.273438 -6.832031 18.609375 -6.0625 C 15.160156 -1.84375 11.9375 0.265625 8.9375 0.265625 Z M 8.9375 0.265625 "/></g></g></g><g fill="#ffffff" fill-opacity="1"><g transform="translate(365.00458, 79.686797)"><g><path d="M 12.234375 1.40625 C 10.421875 1.40625 9.035156 0.988281 8.078125 0.15625 C 7.117188 -0.675781 6.640625 -1.617188 6.640625 -2.671875 C 6.640625 -3.578125 6.96875 -4.359375 7.625 -5.015625 C 8.289062 -5.679688 9.269531 -6.015625 10.5625 -6.015625 C 11.007812 -6.015625 11.535156 -5.96875 12.140625 -5.875 C 12.753906 -5.789062 13.222656 -5.734375 13.546875 -5.703125 C 13.503906 -6.609375 13.300781 -7.460938 12.9375 -8.265625 C 12.570312 -9.066406 12.109375 -9.84375 11.546875 -10.59375 C 10.992188 -11.34375 10.472656 -11.992188 9.984375 -12.546875 C 8.898438 -10.492188 7.828125 -8.785156 6.765625 -7.421875 C 5.703125 -6.066406 4.546875 -4.78125 3.296875 -3.5625 C 2.671875 -2.925781 2.007812 -2.609375 1.3125 -2.609375 C 0.75 -2.609375 0.296875 -2.804688 -0.046875 -3.203125 C -0.398438 -3.609375 -0.578125 -4.109375 -0.578125 -4.703125 C -0.578125 -5.398438 -0.332031 -6.046875 0.15625 -6.640625 L 0.84375 -7.46875 C 2.757812 -9.84375 4.203125 -11.796875 5.171875 -13.328125 C 5.765625 -14.335938 6.460938 -15.6875 7.265625 -17.375 C 8.066406 -19.070312 8.851562 -20.828125 9.625 -22.640625 C 10.28125 -24.171875 11.65625 -24.9375 13.75 -24.9375 C 14.726562 -24.9375 15.40625 -24.847656 15.78125 -24.671875 C 16.164062 -24.503906 16.359375 -24.226562 16.359375 -23.84375 C 16.359375 -23.632812 16.289062 -23.300781 16.15625 -22.84375 C 16.019531 -22.394531 15.828125 -21.941406 15.578125 -21.484375 C 14.953125 -20.234375 14.640625 -19.171875 14.640625 -18.296875 C 14.640625 -17.773438 14.820312 -17.195312 15.1875 -16.5625 C 15.550781 -15.9375 16.117188 -15.15625 16.890625 -14.21875 C 18.003906 -12.757812 18.847656 -11.515625 19.421875 -10.484375 C 19.992188 -9.453125 20.28125 -8.328125 20.28125 -7.109375 C 20.28125 -6.765625 20.25 -6.273438 20.1875 -5.640625 C 21.894531 -6.304688 23.894531 -8.066406 26.1875 -10.921875 C 26.601562 -11.410156 27.078125 -11.65625 27.609375 -11.65625 C 28.054688 -11.65625 28.410156 -11.445312 28.671875 -11.03125 C 28.929688 -10.613281 29.0625 -10.039062 29.0625 -9.3125 C 29.0625 -7.976562 28.734375 -6.894531 28.078125 -6.0625 C 26.328125 -3.90625 24.660156 -2.429688 23.078125 -1.640625 C 21.492188 -0.859375 19.535156 -0.429688 17.203125 -0.359375 C 15.804688 0.816406 14.148438 1.40625 12.234375 1.40625 Z M 12.234375 1.40625 "/></g></g></g><g fill="#ffffff" fill-opacity="1"><g transform="translate(387.330976, 79.686797)"><g><path d="M 25.828125 -11.65625 C 26.273438 -11.65625 26.628906 -11.445312 26.890625 -11.03125 C 27.160156 -10.613281 27.296875 -10.039062 27.296875 -9.3125 C 27.296875 -7.914062 26.960938 -6.832031 26.296875 -6.0625 C 25.003906 -4.5 23.179688 -3.050781 20.828125 -1.71875 C 18.484375 -0.394531 15.96875 0.265625 13.28125 0.265625 C 9.625 0.265625 6.78125 -0.726562 4.75 -2.71875 C 2.726562 -4.707031 1.71875 -7.425781 1.71875 -10.875 C 1.71875 -13.28125 2.222656 -15.519531 3.234375 -17.59375 C 4.242188 -19.664062 5.644531 -21.3125 7.4375 -22.53125 C 9.238281 -23.75 11.273438 -24.359375 13.546875 -24.359375 C 15.566406 -24.359375 17.1875 -23.753906 18.40625 -22.546875 C 19.625 -21.347656 20.234375 -19.722656 20.234375 -17.671875 C 20.234375 -15.265625 19.367188 -13.195312 17.640625 -11.46875 C 15.921875 -9.75 13.003906 -8.382812 8.890625 -7.375 C 9.753906 -5.769531 11.410156 -4.96875 13.859375 -4.96875 C 15.421875 -4.96875 17.203125 -5.515625 19.203125 -6.609375 C 21.210938 -7.710938 22.953125 -9.148438 24.421875 -10.921875 C 24.835938 -11.410156 25.304688 -11.65625 25.828125 -11.65625 Z M 12.65625 -19.234375 C 11.363281 -19.234375 10.269531 -18.484375 9.375 -16.984375 C 8.488281 -15.492188 8.046875 -13.679688 8.046875 -11.546875 L 8.046875 -11.453125 C 10.109375 -11.941406 11.726562 -12.671875 12.90625 -13.640625 C 14.09375 -14.617188 14.6875 -15.753906 14.6875 -17.046875 C 14.6875 -17.703125 14.503906 -18.226562 14.140625 -18.625 C 13.773438 -19.03125 13.28125 -19.234375 12.65625 -19.234375 Z M 12.65625 -19.234375 "/></g></g></g><g fill="#ffffff" fill-opacity="1"><g transform="translate(407.879605, 79.686797)"><g><path d="M 32.203125 -11.65625 C 32.660156 -11.65625 33.019531 -11.445312 33.28125 -11.03125 C 33.539062 -10.613281 33.671875 -10.039062 33.671875 -9.3125 C 33.671875 -7.914062 33.335938 -6.832031 32.671875 -6.0625 C 31.242188 -4.320312 29.675781 -2.832031 27.96875 -1.59375 C 26.257812 -0.351562 24.570312 0.265625 22.90625 0.265625 C 20.25 0.265625 18.222656 -1.285156 16.828125 -4.390625 C 15.367188 -2.546875 14.085938 -1.304688 12.984375 -0.671875 C 11.890625 -0.046875 10.613281 0.265625 9.15625 0.265625 C 7.019531 0.265625 5.265625 -0.523438 3.890625 -2.109375 C 2.515625 -3.703125 1.828125 -5.769531 1.828125 -8.3125 C 1.828125 -11.101562 2.421875 -13.691406 3.609375 -16.078125 C 4.796875 -18.460938 6.425781 -20.410156 8.5 -21.921875 C 10.570312 -23.441406 12.894531 -24.34375 15.46875 -24.625 C 16.132812 -31.382812 17.398438 -37.160156 19.265625 -41.953125 C 21.128906 -46.742188 23.578125 -49.140625 26.609375 -49.140625 C 28.109375 -49.140625 29.351562 -48.457031 30.34375 -47.09375 C 31.34375 -45.738281 31.84375 -43.6875 31.84375 -40.9375 C 31.84375 -37.03125 30.882812 -32.460938 28.96875 -27.234375 C 27.050781 -22.003906 24.488281 -16.640625 21.28125 -11.140625 C 21.414062 -9.117188 21.71875 -7.671875 22.1875 -6.796875 C 22.664062 -5.921875 23.269531 -5.484375 24 -5.484375 C 24.9375 -5.484375 25.894531 -5.898438 26.875 -6.734375 C 27.851562 -7.578125 29.160156 -8.972656 30.796875 -10.921875 C 31.210938 -11.410156 31.679688 -11.65625 32.203125 -11.65625 Z M 26.03125 -44.015625 C 25.375 -44.015625 24.710938 -42.835938 24.046875 -40.484375 C 23.390625 -38.140625 22.820312 -35.066406 22.34375 -31.265625 C 21.875 -27.460938 21.535156 -23.488281 21.328125 -19.34375 C 25.234375 -27.84375 27.1875 -34.675781 27.1875 -39.84375 C 27.1875 -41.164062 27.070312 -42.191406 26.84375 -42.921875 C 26.613281 -43.648438 26.34375 -44.015625 26.03125 -44.015625 Z M 10.984375 -5.015625 C 11.640625 -5.015625 12.296875 -5.285156 12.953125 -5.828125 C 13.617188 -6.367188 14.457031 -7.367188 15.46875 -8.828125 C 15.125 -10.710938 14.953125 -12.820312 14.953125 -15.15625 C 14.953125 -16 14.988281 -17.359375 15.0625 -19.234375 C 13.144531 -18.640625 11.546875 -17.359375 10.265625 -15.390625 C 8.992188 -13.421875 8.359375 -11.234375 8.359375 -8.828125 C 8.359375 -6.285156 9.234375 -5.015625 10.984375 -5.015625 Z M 10.984375 -5.015625 "/></g></g></g><g fill="#ff7cde" fill-opacity="1"><g transform="translate(448.481404, 81.331666)"><g><path d="M 31.875 -27.828125 C 35 -27.046875 37.394531 -25.484375 39.0625 -23.140625 C 40.726562 -20.804688 41.5625 -17.59375 41.5625 -13.5 C 41.5625 -10.625 40.925781 -8.117188 39.65625 -5.984375 C 38.382812 -3.847656 36.613281 -2.1875 34.34375 -1 C 32.082031 0.175781 29.476562 0.765625 26.53125 0.765625 C 24.5 0.765625 22.71875 0.351562 21.1875 -0.46875 C 19.664062 -1.300781 18.425781 -2.457031 17.46875 -3.9375 C 16.519531 -5.425781 15.882812 -7.164062 15.5625 -9.15625 L 22.5625 -9.15625 C 25.15625 -9.15625 27.0625 -9.71875 28.28125 -10.84375 C 29.507812 -11.976562 30.125 -13.5 30.125 -15.40625 C 30.125 -17.28125 29.535156 -18.789062 28.359375 -19.9375 C 27.191406 -21.082031 25.515625 -21.65625 23.328125 -21.65625 L 15.5625 -21.65625 L 15.5625 -14.265625 C 15.5625 -9.992188 14.566406 -6.484375 12.578125 -3.734375 C 10.597656 -0.992188 7.78125 0.757812 4.125 1.53125 L 4.125 -50.328125 C 4.125 -51.335938 4.628906 -51.84375 5.640625 -51.84375 L 20.4375 -51.84375 C 26.082031 -51.84375 30.425781 -50.65625 33.46875 -48.28125 C 36.519531 -45.90625 38.046875 -42.519531 38.046875 -38.125 C 38.046875 -35.8125 37.492188 -33.726562 36.390625 -31.875 C 35.285156 -30.019531 33.78125 -28.671875 31.875 -27.828125 Z M 15.5625 -30.8125 L 20.4375 -30.8125 C 22.644531 -30.8125 24.265625 -31.289062 25.296875 -32.25 C 26.328125 -33.21875 26.84375 -34.617188 26.84375 -36.453125 C 26.84375 -38.253906 26.335938 -39.617188 25.328125 -40.546875 C 24.328125 -41.472656 22.695312 -41.9375 20.4375 -41.9375 L 15.5625 -41.9375 Z M 15.5625 -30.8125 "/></g></g></g><g fill="#ff7cde" fill-opacity="1"><g transform="translate(491.51164, 81.750462)"><g><path d="M 12.125 -33.46875 C 12.125 -32.113281 11.703125 -31.03125 10.859375 -30.21875 C 10.023438 -29.414062 8.914062 -29.015625 7.53125 -29.015625 C 6.164062 -29.015625 5.082031 -29.414062 4.28125 -30.21875 C 3.476562 -31.03125 3.078125 -32.113281 3.078125 -33.46875 C 3.078125 -34.789062 3.492188 -35.863281 4.328125 -36.6875 C 5.171875 -37.507812 6.269531 -37.921875 7.625 -37.921875 C 8.976562 -37.921875 10.066406 -37.507812 10.890625 -36.6875 C 11.710938 -35.863281 12.125 -34.789062 12.125 -33.46875 Z M 11.21875 -5.109375 C 11.21875 -4.191406 11.445312 -3.535156 11.90625 -3.140625 C 12.363281 -2.753906 13.066406 -2.5625 14.015625 -2.5625 C 14.015625 -1.582031 13.648438 -0.726562 12.921875 0 L 2.21875 0 C 1.5 -0.726562 1.140625 -1.582031 1.140625 -2.5625 C 2.085938 -2.5625 2.769531 -2.753906 3.1875 -3.140625 C 3.613281 -3.535156 3.828125 -4.207031 3.828125 -5.15625 L 3.828125 -18.890625 C 3.828125 -19.773438 3.613281 -20.40625 3.1875 -20.78125 C 2.769531 -21.164062 1.941406 -21.359375 0.703125 -21.359375 L 0.703125 -23.4375 C 1.460938 -23.90625 2.75 -24.398438 4.5625 -24.921875 C 6.382812 -25.441406 7.925781 -25.703125 9.1875 -25.703125 C 9.914062 -25.703125 10.4375 -25.535156 10.75 -25.203125 C 11.0625 -24.878906 11.21875 -24.320312 11.21875 -23.53125 Z M 11.21875 -5.109375 "/></g></g></g><g fill="#ff7cde" fill-opacity="1"><g transform="translate(506.282198, 81.750462)"><g><path d="M 1.046875 -6.671875 C 1.046875 -8.785156 1.738281 -10.457031 3.125 -11.6875 C 4.507812 -12.925781 6.5625 -13.546875 9.28125 -13.546875 C 10.226562 -13.546875 11.195312 -13.445312 12.1875 -13.25 C 13.1875 -13.0625 14 -12.8125 14.625 -12.5 L 14.625 -18.796875 C 14.625 -20.054688 14.304688 -20.960938 13.671875 -21.515625 C 13.046875 -22.066406 12.195312 -22.34375 11.125 -22.34375 C 10.082031 -22.34375 9.226562 -22.09375 8.5625 -21.59375 C 9.164062 -21.394531 9.617188 -21.066406 9.921875 -20.609375 C 10.222656 -20.160156 10.375 -19.648438 10.375 -19.078125 C 10.375 -18.066406 10.007812 -17.242188 9.28125 -16.609375 C 8.550781 -15.984375 7.632812 -15.671875 6.53125 -15.671875 C 5.332031 -15.671875 4.367188 -16.015625 3.640625 -16.703125 C 2.921875 -17.398438 2.5625 -18.300781 2.5625 -19.40625 C 2.5625 -20.507812 2.9375 -21.550781 3.6875 -22.53125 C 4.445312 -23.507812 5.609375 -24.296875 7.171875 -24.890625 C 8.734375 -25.492188 10.664062 -25.796875 12.96875 -25.796875 C 16.09375 -25.796875 18.457031 -25.15625 20.0625 -23.875 C 21.675781 -22.601562 22.484375 -20.738281 22.484375 -18.28125 L 22.484375 -5.734375 C 22.484375 -4.210938 23.210938 -3.296875 24.671875 -2.984375 L 24.671875 -1.46875 C 24.253906 -0.894531 23.570312 -0.453125 22.625 -0.140625 C 21.675781 0.171875 20.71875 0.328125 19.75 0.328125 C 17.59375 0.328125 16.078125 -0.410156 15.203125 -1.890625 C 14.472656 -1.265625 13.585938 -0.738281 12.546875 -0.3125 C 11.503906 0.113281 10.320312 0.328125 9 0.328125 C 6.625 0.328125 4.703125 -0.320312 3.234375 -1.625 C 1.773438 -2.9375 1.046875 -4.617188 1.046875 -6.671875 Z M 14.625 -8.859375 C 14.28125 -9.078125 13.863281 -9.265625 13.375 -9.421875 C 12.882812 -9.578125 12.421875 -9.65625 11.984375 -9.65625 C 11.097656 -9.65625 10.367188 -9.378906 9.796875 -8.828125 C 9.234375 -8.273438 8.953125 -7.476562 8.953125 -6.4375 C 8.953125 -5.582031 9.234375 -4.878906 9.796875 -4.328125 C 10.367188 -3.773438 11.128906 -3.5 12.078125 -3.5 C 12.546875 -3.5 13.007812 -3.566406 13.46875 -3.703125 C 13.925781 -3.847656 14.3125 -4.035156 14.625 -4.265625 Z M 14.625 -8.859375 "/></g></g></g><g fill="#ff7cde" fill-opacity="1"><g transform="translate(531.704596, 81.750462)"><g><path d="M 10.9375 0.46875 C 9.382812 0.46875 7.84375 0.238281 6.3125 -0.21875 C 4.789062 -0.675781 3.539062 -1.328125 2.5625 -2.171875 C 1.582031 -3.023438 1.09375 -4.035156 1.09375 -5.203125 C 1.09375 -6.304688 1.40625 -7.195312 2.03125 -7.875 C 2.664062 -8.5625 3.472656 -8.90625 4.453125 -8.90625 C 5.335938 -8.90625 6.085938 -8.617188 6.703125 -8.046875 C 7.316406 -7.484375 7.625 -6.742188 7.625 -5.828125 C 7.625 -5.410156 7.566406 -5.050781 7.453125 -4.75 C 7.347656 -4.457031 7.148438 -4.132812 6.859375 -3.78125 C 7.117188 -3.53125 7.59375 -3.332031 8.28125 -3.1875 C 8.976562 -3.050781 9.722656 -2.984375 10.515625 -2.984375 C 11.585938 -2.984375 12.429688 -3.179688 13.046875 -3.578125 C 13.660156 -3.972656 13.96875 -4.484375 13.96875 -5.109375 C 13.96875 -5.960938 13.570312 -6.695312 12.78125 -7.3125 C 11.988281 -7.925781 10.726562 -8.691406 9 -9.609375 C 7.226562 -10.554688 5.882812 -11.335938 4.96875 -11.953125 C 4.050781 -12.566406 3.238281 -13.398438 2.53125 -14.453125 C 1.820312 -15.515625 1.46875 -16.820312 1.46875 -18.375 C 1.46875 -20.519531 2.347656 -22.253906 4.109375 -23.578125 C 5.878906 -24.898438 8.328125 -25.5625 11.453125 -25.5625 C 14.515625 -25.5625 16.796875 -25.015625 18.296875 -23.921875 C 19.796875 -22.835938 20.546875 -21.539062 20.546875 -20.03125 C 20.546875 -19.082031 20.238281 -18.304688 19.625 -17.703125 C 19.007812 -17.109375 18.257812 -16.8125 17.375 -16.8125 C 16.550781 -16.8125 15.847656 -17.054688 15.265625 -17.546875 C 14.679688 -18.035156 14.390625 -18.671875 14.390625 -19.453125 C 14.390625 -19.867188 14.453125 -20.289062 14.578125 -20.71875 C 14.703125 -21.144531 14.878906 -21.5 15.109375 -21.78125 C 14.472656 -22.28125 13.523438 -22.53125 12.265625 -22.53125 C 11.253906 -22.53125 10.460938 -22.289062 9.890625 -21.8125 C 9.328125 -21.34375 9.046875 -20.75 9.046875 -20.03125 C 9.046875 -19.050781 9.4375 -18.242188 10.21875 -17.609375 C 11.007812 -16.984375 12.273438 -16.226562 14.015625 -15.34375 C 15.648438 -14.488281 16.941406 -13.742188 17.890625 -13.109375 C 18.835938 -12.484375 19.660156 -11.648438 20.359375 -10.609375 C 21.054688 -9.566406 21.40625 -8.285156 21.40625 -6.765625 C 21.40625 -4.304688 20.398438 -2.484375 18.390625 -1.296875 C 16.390625 -0.117188 13.90625 0.46875 10.9375 0.46875 Z M 10.9375 0.46875 "/></g></g></g><g clip-path="url(#5637f503a3)"><g clip-path="url(#7fb5e97274)"><path fill="#6a00ff" d="M 1.234375 4.996094 L 92.167969 4.996094 L 92.167969 95.929688 L 1.234375 95.929688 Z M 1.234375 4.996094 " fill-opacity="1" fill-rule="nonzero"/></g></g><path stroke-linecap="butt" transform="matrix(1.045871, 0, 0, 1.045871, 37.750573, 21.917688)" fill="none" stroke-linejoin="miter" d="M 30.599706 25.453793 C 32.795843 26.002827 34.480295 27.100896 35.645592 28.747998 C 36.814624 30.387631 37.401008 32.643527 37.401008 35.523155 C 37.401008 37.536281 36.956552 39.291696 36.067639 40.789402 C 35.174992 42.290842 33.934996 43.456139 32.340182 44.292763 C 30.752838 45.121917 28.922724 45.536494 26.84984 45.536494 C 25.426833 45.536494 24.183103 45.248904 23.111179 44.673726 C 22.039255 44.087342 21.165282 43.273128 20.49673 42.227349 C 19.824443 41.181569 19.376252 39.963983 19.148421 38.567121 L 24.063585 38.567121 C 25.886229 38.567121 27.223333 38.171218 28.078631 37.379414 C 28.941399 36.583874 29.370916 35.523155 29.370916 34.189787 C 29.370916 32.863888 28.963809 31.799433 28.142125 30.996424 C 27.324176 30.19715 26.143939 29.793778 24.601414 29.793778 L 19.148421 29.793778 L 19.148421 34.985326 C 19.148421 37.984472 18.44999 40.445789 17.056862 42.373011 C 15.663735 44.300233 13.680489 45.532759 11.107124 46.070588 L 11.107124 9.662523 C 11.107124 8.945417 11.465677 8.590599 12.179048 8.590599 L 22.573349 8.590599 C 26.532371 8.590599 29.580071 9.427223 31.723919 11.10047 C 33.867767 12.766247 34.939691 15.137926 34.939691 18.22671 C 34.939691 19.847668 34.554994 21.311759 33.778129 22.618984 C 33.001264 23.915003 31.94428 24.863675 30.599706 25.453793 Z M 19.148421 23.362234 L 22.573349 23.362234 C 24.123344 23.362234 25.262496 23.026091 25.987072 22.357539 C 26.707913 21.677782 27.070201 20.691762 27.070201 19.403212 C 27.070201 18.137072 26.719118 17.180931 26.013217 16.523584 C 25.307315 15.869971 24.160693 15.545033 22.573349 15.545033 L 19.148421 15.545033 Z M 19.148421 23.362234 " stroke="#000000" stroke-width="2.878527" stroke-opacity="1" stroke-miterlimit="4"/><g fill="#ff7cde" fill-opacity="1"><g transform="translate(46.346322, 68.981866)"><g><path d="M 23.40625 -20.4375 C 25.707031 -19.863281 27.46875 -18.71875 28.6875 -17 C 29.90625 -15.28125 30.515625 -12.914062 30.515625 -9.90625 C 30.515625 -7.800781 30.046875 -5.960938 29.109375 -4.390625 C 28.179688 -2.828125 26.882812 -1.609375 25.21875 -0.734375 C 23.5625 0.128906 21.648438 0.5625 19.484375 0.5625 C 17.992188 0.5625 16.6875 0.257812 15.5625 -0.34375 C 14.445312 -0.957031 13.535156 -1.804688 12.828125 -2.890625 C 12.128906 -3.984375 11.660156 -5.257812 11.421875 -6.71875 L 16.578125 -6.71875 C 18.484375 -6.71875 19.882812 -7.132812 20.78125 -7.96875 C 21.675781 -8.800781 22.125 -9.914062 22.125 -11.3125 C 22.125 -12.695312 21.691406 -13.804688 20.828125 -14.640625 C 19.972656 -15.484375 18.742188 -15.90625 17.140625 -15.90625 L 11.421875 -15.90625 L 11.421875 -10.46875 C 11.421875 -7.332031 10.691406 -4.753906 9.234375 -2.734375 C 7.785156 -0.722656 5.71875 0.5625 3.03125 1.125 L 3.03125 -36.953125 C 3.03125 -37.703125 3.398438 -38.078125 4.140625 -38.078125 L 15.015625 -38.078125 C 19.148438 -38.078125 22.335938 -37.203125 24.578125 -35.453125 C 26.816406 -33.710938 27.9375 -31.226562 27.9375 -28 C 27.9375 -26.300781 27.53125 -24.769531 26.71875 -23.40625 C 25.914062 -22.039062 24.8125 -21.050781 23.40625 -20.4375 Z M 11.421875 -22.625 L 15.015625 -22.625 C 16.628906 -22.625 17.816406 -22.976562 18.578125 -23.6875 C 19.335938 -24.394531 19.71875 -25.421875 19.71875 -26.765625 C 19.71875 -28.085938 19.347656 -29.085938 18.609375 -29.765625 C 17.867188 -30.453125 16.671875 -30.796875 15.015625 -30.796875 L 11.421875 -30.796875 Z M 11.421875 -22.625 "/></g></g></g><path stroke-linecap="butt" transform="matrix(0.73092, 0.206283, -0.206283, 0.73092, 18.18619, 23.577591)" fill="none" stroke-linejoin="miter" d="M 19.88842 47.248117 C 17.019311 47.250859 14.85504 46.456119 13.3885 44.876591 C 11.920564 43.292113 11.187717 41.16883 11.18856 38.501791 C 11.187052 37.000472 11.410537 35.179128 11.851274 33.029256 L 15.028389 18.381743 C 15.09143 18.11277 15.249973 17.367923 15.50262 16.142254 C 15.758821 14.910237 15.889599 13.574666 15.886451 12.143285 C 15.889112 11.319513 15.725783 10.702917 15.401413 10.292099 C 15.08339 9.884833 14.651671 9.680673 14.101306 9.681015 C 13.075463 9.68194 11.882025 10.168396 10.51109 11.143178 C 9.148658 12.110216 7.714595 13.599833 6.216644 15.620533 C 5.741904 16.267567 5.208853 16.594368 4.625994 16.593192 C 4.150517 16.593775 3.73796 16.36283 3.37982 15.908099 C 3.017489 15.438519 2.838308 14.917249 2.842279 14.344289 C 2.842871 13.285953 3.317269 12.088553 4.278165 10.759196 C 7.751205 5.984577 11.827665 3.594229 16.515292 3.596654 C 18.588174 3.594166 20.211066 4.231727 21.386126 5.49804 C 22.568292 6.751659 23.162109 8.609555 23.161232 11.068176 C 23.161256 12.810407 23.042326 14.415193 22.798093 15.878981 C 22.566555 17.349875 22.156003 19.341588 21.575577 21.867573 L 19.477406 31.229705 C 19.409294 31.537519 19.286007 32.085366 19.11389 32.876798 C 18.945326 33.661882 18.806583 34.401141 18.700456 35.104473 C 18.597881 35.801458 18.547601 36.494373 18.548217 37.178268 C 18.551057 38.267702 18.855572 39.138388 19.476614 39.786136 C 20.091308 40.430331 20.962094 40.751069 22.084022 40.749748 C 24.137104 40.752848 26.212096 39.659528 28.310397 37.47474 C 30.410094 35.294903 32.355867 31.774335 34.149111 26.917988 C 35.93956 22.051741 37.324635 15.824876 38.307128 8.247295 C 38.552966 6.505151 38.90094 5.295332 39.357397 4.621392 C 39.827308 3.93831 40.719312 3.595713 42.044708 3.595755 C 43.246474 3.593279 44.133386 3.95222 44.705445 4.672579 C 45.292353 5.388748 45.58181 6.546932 45.583714 8.144336 C 45.582847 9.069143 45.470834 10.281844 45.247678 11.782437 C 45.029472 13.281634 44.696998 15.379575 44.256604 18.079812 C 43.334025 23.294341 42.59365 28.094037 42.047536 32.464807 C 41.776222 34.438601 41.64572 35.907702 41.643334 36.865003 C 41.647999 38.26389 41.959654 39.3303 42.583248 40.062837 C 43.218138 40.797529 44.064053 41.162697 45.12239 41.163289 C 46.244318 41.161968 47.346258 40.786843 48.418311 40.040709 C 49.493916 39.288227 50.766818 38.041832 52.241967 36.300127 C 52.653269 35.82598 53.110431 35.590073 53.618402 35.591007 C 54.061385 35.588906 54.408315 35.795618 54.667697 36.203401 C 54.927079 36.611183 55.053844 37.173967 55.057893 37.888959 C 55.054297 39.220702 54.728004 40.280106 54.077616 41.062221 C 52.306534 43.213448 50.547926 44.78397 48.808137 45.777343 C 47.065555 46.760815 45.241913 47.248768 43.333657 47.24755 C 40.501992 47.250413 38.331132 46.527009 36.821077 45.077336 C 35.320921 43.62487 34.570342 41.741739 34.574288 39.426548 C 34.571416 38.128697 34.847338 35.603141 35.397105 31.851277 C 33.687406 36.871095 31.525902 40.687696 28.910434 43.312377 C 26.301314 45.94061 23.293045 47.249224 19.88842 47.248117 Z M 19.88842 47.248117 " stroke="#000000" stroke-width="3.455514" stroke-opacity="1" stroke-miterlimit="4"/><g fill="#ffffff" fill-opacity="1"><g transform="translate(10.60371, 58.527135)"><g><path d="M 12.375 3.6875 C 10.28125 3.101562 8.859375 2.078125 8.109375 0.609375 C 7.359375 -0.859375 7.257812 -2.5625 7.8125 -4.5 C 8.125 -5.59375 8.660156 -6.878906 9.421875 -8.359375 L 14.78125 -18.421875 C 14.882812 -18.597656 15.15625 -19.109375 15.59375 -19.953125 C 16.03125 -20.796875 16.394531 -21.738281 16.6875 -22.78125 C 16.851562 -23.382812 16.863281 -23.867188 16.71875 -24.234375 C 16.570312 -24.609375 16.300781 -24.851562 15.90625 -24.96875 C 15.144531 -25.175781 14.164062 -25.0625 12.96875 -24.625 C 11.769531 -24.195312 10.414062 -23.40625 8.90625 -22.25 C 8.414062 -21.875 7.960938 -21.742188 7.546875 -21.859375 C 7.191406 -21.953125 6.929688 -22.207031 6.765625 -22.625 C 6.609375 -23.039062 6.585938 -23.457031 6.703125 -23.875 C 6.921875 -24.644531 7.515625 -25.425781 8.484375 -26.21875 C 12.015625 -28.988281 15.488281 -29.890625 18.90625 -28.921875 C 20.425781 -28.492188 21.484375 -27.695312 22.078125 -26.53125 C 22.679688 -25.363281 22.726562 -23.878906 22.21875 -22.078125 C 21.863281 -20.804688 21.445312 -19.660156 20.96875 -18.640625 C 20.488281 -17.617188 19.78125 -16.242188 18.84375 -14.515625 L 15.375 -8.09375 C 15.257812 -7.882812 15.054688 -7.507812 14.765625 -6.96875 C 14.484375 -6.425781 14.226562 -5.910156 14 -5.421875 C 13.78125 -4.929688 13.601562 -4.441406 13.46875 -3.953125 C 13.238281 -3.148438 13.285156 -2.453125 13.609375 -1.859375 C 13.929688 -1.265625 14.503906 -0.851562 15.328125 -0.625 C 16.816406 -0.195312 18.550781 -0.5625 20.53125 -1.71875 C 22.519531 -2.882812 24.671875 -5.054688 26.984375 -8.234375 C 29.304688 -11.421875 31.601562 -15.675781 33.875 -21 C 34.414062 -22.226562 34.921875 -23.046875 35.390625 -23.453125 C 35.867188 -23.859375 36.59375 -23.925781 37.5625 -23.65625 C 38.4375 -23.414062 39.015625 -22.96875 39.296875 -22.3125 C 39.578125 -21.664062 39.550781 -20.753906 39.21875 -19.578125 C 39.03125 -18.910156 38.695312 -18.050781 38.21875 -17 C 37.75 -15.945312 37.070312 -14.484375 36.1875 -12.609375 C 34.4375 -8.972656 32.910156 -5.617188 31.609375 -2.546875 C 31.003906 -1.160156 30.601562 -0.117188 30.40625 0.578125 C 30.113281 1.597656 30.125 2.441406 30.4375 3.109375 C 30.75 3.773438 31.296875 4.222656 32.078125 4.453125 C 32.898438 4.679688 33.78125 4.628906 34.71875 4.296875 C 35.65625 3.972656 36.835938 3.328125 38.265625 2.359375 C 38.671875 2.085938 39.0625 2.007812 39.4375 2.125 C 39.757812 2.207031 39.96875 2.425781 40.0625 2.78125 C 40.164062 3.144531 40.144531 3.585938 40 4.109375 C 39.726562 5.078125 39.269531 5.78125 38.625 6.21875 C 36.894531 7.425781 35.289062 8.210938 33.8125 8.578125 C 32.34375 8.941406 30.910156 8.925781 29.515625 8.53125 C 27.441406 7.945312 26.003906 6.96875 25.203125 5.59375 C 24.398438 4.21875 24.238281 2.6875 24.71875 1 C 24.988281 0.0390625 25.710938 -1.742188 26.890625 -4.359375 C 24.597656 -1.054688 22.226562 1.285156 19.78125 2.671875 C 17.34375 4.054688 14.875 4.394531 12.375 3.6875 Z M 12.375 3.6875 "/></g></g></g></svg>