<svg xmlns="http://www.w3.org/2000/svg" xmlns:xlink="http://www.w3.org/1999/xlink" width="500" zoomAndPan="magnify" viewBox="0 0 375 248.250006" height="331" preserveAspectRatio="xMidYMid meet" version="1.0"><defs><clipPath id="4e63fdc6fd"><path d="M 6 13 L 374.433594 13 L 374.433594 245 L 6 245 Z M 6 13 " clip-rule="nonzero"/></clipPath><clipPath id="202adc1d37"><path d="M 0.566406 1 L 290 1 L 290 229 L 0.566406 229 Z M 0.566406 1 " clip-rule="nonzero"/></clipPath></defs><g clip-path="url(#4e63fdc6fd)"><path fill="#ff7cde" d="M 361.296875 244.375 C 354.089844 244.375 346.542969 241.152344 341.464844 236.175781 C 332.824219 227.703125 329.15625 215.664062 326.144531 204.0625 L 325.636719 202.089844 C 322.816406 191.171875 319.902344 179.886719 312.957031 171.03125 C 303.378906 158.820312 285.882812 152.074219 267.289062 153.425781 C 249.8125 154.699219 233.179688 162.308594 219.214844 169.582031 C 215.980469 171.273438 212.703125 173.027344 209.535156 174.734375 C 197.886719 180.996094 185.84375 187.472656 173.085938 191.660156 C 164.449219 194.496094 155.847656 195.722656 148.210938 195.203125 C 139.09375 194.582031 131.683594 191.546875 126.171875 186.183594 C 116.984375 177.230469 113.867188 162.453125 116.910156 142.265625 C 118.074219 134.519531 119.765625 126.734375 121.402344 119.203125 C 123.601562 109.074219 125.875 98.601562 126.894531 88.121094 C 128.355469 73.082031 127.460938 51.804688 114.921875 35.898438 C 103.925781 21.953125 84.558594 13.773438 63.054688 14.011719 C 44.714844 14.210938 27.222656 19.648438 6.597656 27.75 L 6.4375 27.351562 C 27.105469 19.234375 44.644531 13.78125 63.050781 13.582031 C 84.65625 13.335938 104.183594 21.585938 115.257812 35.632812 C 127.890625 51.652344 128.789062 73.042969 127.324219 88.164062 C 126.304688 98.667969 124.03125 109.152344 121.828125 119.292969 C 120.195312 126.816406 118.503906 134.597656 117.339844 142.324219 C 114.324219 162.371094 117.398438 177.027344 126.480469 185.875 C 136.40625 195.542969 153.78125 197.550781 172.957031 191.253906 C 185.679688 187.078125 197.707031 180.609375 209.339844 174.355469 C 212.503906 172.652344 215.78125 170.890625 219.019531 169.207031 C 233.027344 161.910156 249.710938 154.28125 267.265625 153 C 285.992188 151.636719 303.628906 158.445312 313.300781 170.765625 C 320.300781 179.691406 323.226562 191.023438 326.054688 201.984375 L 326.566406 203.953125 C 329.566406 215.496094 333.207031 227.472656 341.769531 235.867188 C 350.03125 243.96875 364.929688 247.359375 373.9375 239.496094 L 374.222656 239.820312 C 370.585938 242.988281 366.011719 244.371094 361.300781 244.375 Z M 361.296875 244.375 " fill-opacity="1" fill-rule="nonzero"/></g><path fill="#ff7cde" d="M 357.300781 243.632812 C 350.171875 243.632812 342.785156 240.488281 337.761719 235.777344 C 329.097656 227.664062 325.199219 216.085938 321.941406 204.929688 C 321.726562 204.203125 321.519531 203.472656 321.308594 202.742188 C 318.785156 194.023438 316.175781 185.003906 311.375 177.28125 C 310.410156 175.726562 309.367188 174.246094 308.277344 172.886719 C 298.628906 160.828125 281.921875 154.070312 263.59375 154.820312 C 247.695312 155.464844 233.050781 161.28125 222.066406 166.277344 C 220.511719 166.984375 218.917969 167.722656 217.195312 168.546875 C 214.015625 170.0625 210.808594 171.652344 207.703125 173.1875 C 196.660156 178.648438 185.242188 184.292969 173.171875 187.792969 C 164.296875 190.363281 142.144531 194.835938 128.300781 180.859375 C 127.300781 179.84375 126.351562 178.75 125.496094 177.589844 C 118.835938 168.609375 116.5625 155.164062 118.726562 137.617188 C 119.636719 130.238281 121 122.835938 122.320312 115.679688 C 124.175781 105.621094 126.089844 95.222656 126.742188 84.867188 C 127.59375 71.421875 126.035156 59.46875 122.113281 49.332031 C 119.964844 43.769531 117.082031 38.777344 113.542969 34.5 C 102.480469 21.109375 83.261719 13.234375 62.125 13.457031 C 44.039062 13.640625 26.738281 18.84375 6.316406 26.597656 L 6.164062 26.199219 C 26.625 18.425781 43.96875 13.214844 62.121094 13.027344 C 83.367188 12.800781 102.726562 20.738281 113.871094 34.222656 C 117.4375 38.542969 120.34375 43.574219 122.511719 49.175781 C 126.460938 59.371094 128.023438 71.386719 127.171875 84.890625 C 126.515625 95.273438 124.59375 105.683594 122.742188 115.757812 C 121.421875 122.910156 120.058594 130.304688 119.148438 137.667969 C 117 155.097656 119.253906 168.445312 125.839844 177.335938 C 126.683594 178.472656 127.613281 179.558594 128.601562 180.554688 C 142.28125 194.371094 164.242188 189.929688 173.046875 187.378906 C 185.082031 183.890625 196.484375 178.25 207.507812 172.796875 C 210.613281 171.261719 213.824219 169.671875 217.007812 168.152344 C 218.734375 167.328125 220.328125 166.585938 221.886719 165.878906 C 232.90625 160.867188 247.601562 155.035156 263.570312 154.382812 C 272.125 154.035156 280.691406 155.386719 288.339844 158.292969 C 296.628906 161.441406 303.640625 166.394531 308.609375 172.609375 C 309.707031 173.980469 310.761719 175.476562 311.734375 177.042969 C 316.558594 184.816406 319.179688 193.859375 321.710938 202.609375 C 321.921875 203.339844 322.136719 204.070312 322.34375 204.796875 C 325.585938 215.902344 329.460938 227.414062 338.042969 235.453125 C 346.210938 243.109375 360.71875 246.574219 369.910156 238.832031 L 370.1875 239.164062 C 366.484375 242.277344 361.941406 243.621094 357.292969 243.621094 Z M 357.300781 243.632812 " fill-opacity="1" fill-rule="nonzero"/><path fill="#ff7cde" d="M 353.25 242.828125 C 352.160156 242.828125 351.050781 242.753906 349.929688 242.613281 C 344.144531 241.871094 338.355469 239.238281 334.046875 235.390625 C 325.363281 227.632812 321.226562 216.519531 317.734375 205.804688 C 317.472656 205 317.210938 204.1875 316.949219 203.375 C 314.265625 195.0625 311.488281 186.46875 306.707031 179.039062 C 305.730469 177.523438 304.683594 176.078125 303.601562 174.75 C 294.109375 163.132812 277.964844 156.21875 260.34375 156.21875 C 260.195312 156.21875 260.042969 156.21875 259.890625 156.21875 C 244.476562 156.324219 230.386719 161.273438 219.839844 165.570312 C 218.355469 166.171875 216.832031 166.8125 215.171875 167.523438 C 212.070312 168.855469 208.949219 170.257812 205.925781 171.605469 C 195.476562 176.285156 184.667969 181.117188 173.253906 183.9375 C 164.78125 186.027344 143.640625 189.394531 130.425781 175.550781 C 129.460938 174.539062 128.550781 173.445312 127.71875 172.296875 C 121.230469 163.308594 118.882812 150.449219 120.542969 132.984375 C 121.210938 126.011719 122.257812 119.027344 123.265625 112.277344 C 124.765625 102.253906 126.316406 91.890625 126.597656 81.625 C 126.953125 68.601562 125.050781 57.074219 120.941406 47.355469 C 118.679688 42.007812 115.730469 37.21875 112.171875 33.109375 C 101.035156 20.273438 81.976562 12.703125 61.203125 12.917969 C 43.375 13.085938 26.261719 18.050781 6.046875 25.460938 L 5.902344 25.058594 C 26.15625 17.636719 43.308594 12.65625 61.199219 12.488281 C 71.027344 12.40625 80.773438 14.054688 89.378906 17.269531 C 98.835938 20.8125 106.613281 26.046875 112.496094 32.828125 C 116.085938 36.972656 119.058594 41.800781 121.339844 47.183594 C 125.472656 56.957031 127.390625 68.546875 127.027344 81.632812 C 126.75 91.921875 125.195312 102.304688 123.691406 112.339844 C 122.679688 119.082031 121.640625 126.058594 120.96875 133.023438 C 119.320312 150.378906 121.644531 163.144531 128.070312 172.042969 C 128.886719 173.179688 129.789062 174.257812 130.742188 175.257812 C 143.800781 188.9375 164.753906 185.589844 173.160156 183.519531 C 184.535156 180.710938 195.324219 175.882812 205.761719 171.210938 C 208.78125 169.859375 211.910156 168.460938 215.015625 167.125 C 216.671875 166.414062 218.203125 165.769531 219.683594 165.167969 C 230.273438 160.851562 244.40625 155.890625 259.894531 155.789062 C 277.824219 155.671875 294.285156 162.652344 303.9375 174.472656 C 305.035156 175.8125 306.089844 177.269531 307.074219 178.800781 C 311.886719 186.277344 314.671875 194.902344 317.363281 203.238281 C 317.625 204.046875 317.886719 204.859375 318.144531 205.664062 C 321.617188 216.324219 325.730469 227.375 334.335938 235.0625 C 342.449219 242.3125 356.820312 245.570312 365.902344 238.199219 L 366.171875 238.535156 C 362.703125 241.347656 358.207031 242.828125 353.253906 242.828125 Z M 353.25 242.828125 " fill-opacity="1" fill-rule="nonzero"/><path fill="#ff7cde" d="M 349.324219 242.039062 C 342.449219 242.039062 335.347656 239.246094 330.339844 234.984375 C 321.625 227.582031 317.257812 216.9375 313.53125 206.664062 C 313.210938 205.773438 312.886719 204.878906 312.5625 203.980469 C 309.726562 196.082031 306.796875 187.917969 302.042969 180.785156 C 301.058594 179.304688 300.011719 177.898438 298.925781 176.597656 C 289.441406 165.214844 273.464844 158.113281 256.191406 157.605469 C 241.273438 157.164062 227.738281 161.242188 217.617188 164.839844 C 216.199219 165.347656 214.742188 165.882812 213.160156 166.476562 C 210.15625 167.613281 207.136719 168.808594 204.21875 169.960938 C 194.339844 173.867188 184.121094 177.910156 173.34375 180.058594 C 165.792969 181.558594 158.378906 181.714844 151.894531 180.5 C 143.964844 179.019531 137.460938 175.558594 132.566406 170.226562 C 131.632812 169.214844 130.757812 168.121094 129.949219 166.980469 C 123.726562 158.113281 121.246094 145.476562 122.367188 128.332031 C 122.800781 121.804688 123.542969 115.285156 124.257812 108.980469 C 125.449219 98.484375 126.574219 88.570312 126.453125 78.355469 C 126.316406 65.757812 124.070312 54.652344 119.765625 45.351562 C 117.398438 40.222656 114.382812 35.628906 110.800781 31.695312 C 99.566406 19.378906 81.453125 12.347656 61.027344 12.347656 C 60.777344 12.347656 60.53125 12.347656 60.28125 12.347656 C 40.75 12.511719 21.90625 18.597656 5.777344 24.292969 L 5.636719 23.890625 C 21.796875 18.1875 40.675781 12.085938 60.277344 11.917969 C 81.140625 11.742188 99.664062 18.847656 111.117188 31.40625 C 114.726562 35.367188 117.769531 40 120.15625 45.171875 C 124.480469 54.527344 126.742188 65.691406 126.882812 78.347656 C 127 88.585938 125.820312 98.976562 124.679688 109.023438 C 123.964844 115.320312 123.230469 121.832031 122.792969 128.355469 C 121.675781 145.394531 124.132812 157.945312 130.296875 166.726562 C 131.089844 167.851562 131.960938 168.933594 132.878906 169.929688 C 145.3125 183.46875 165.257812 181.230469 173.257812 179.636719 C 183.996094 177.492188 194.191406 173.457031 204.054688 169.558594 C 206.976562 168.402344 209.996094 167.210938 213.003906 166.070312 C 214.585938 165.476562 216.046875 164.933594 217.46875 164.433594 C 227.628906 160.816406 241.214844 156.730469 256.207031 157.171875 C 273.597656 157.6875 289.6875 164.839844 299.257812 176.320312 C 300.347656 177.628906 301.40625 179.050781 302.402344 180.539062 C 307.1875 187.714844 310.125 195.90625 312.972656 203.828125 C 313.292969 204.730469 313.613281 205.625 313.9375 206.511719 C 317.644531 216.730469 321.984375 227.316406 330.617188 234.652344 C 338.847656 241.648438 352.796875 244.640625 361.882812 237.539062 L 362.148438 237.878906 C 358.433594 240.777344 353.929688 242.03125 349.328125 242.03125 Z M 349.324219 242.039062 " fill-opacity="1" fill-rule="nonzero"/><path fill="#ff7cde" d="M 345.25 241.242188 C 344.257812 241.242188 343.242188 241.1875 342.214844 241.070312 C 336.628906 240.441406 330.949219 238.078125 326.625 234.597656 C 317.871094 227.542969 313.277344 217.363281 309.324219 207.539062 C 308.925781 206.554688 308.53125 205.558594 308.132812 204.5625 C 305.160156 197.089844 302.082031 189.359375 297.367188 182.539062 C 296.371094 181.101562 295.320312 179.726562 294.242188 178.460938 C 284.84375 167.421875 269.234375 160.148438 252.488281 159.003906 C 238.078125 158.019531 225.085938 161.230469 215.378906 164.132812 C 214.011719 164.539062 212.621094 164.972656 211.128906 165.449219 C 208.246094 166.375 205.359375 167.347656 202.5625 168.292969 C 192.800781 171.59375 183.578125 174.710938 173.417969 176.203125 C 163.898438 177.589844 146.203125 177.96875 134.679688 164.917969 C 133.785156 163.90625 132.9375 162.820312 132.160156 161.683594 C 126.121094 152.835938 123.585938 140.765625 124.171875 123.703125 C 124.386719 117.671875 124.839844 111.671875 125.28125 105.863281 C 126.078125 95.304688 126.832031 85.324219 126.296875 75.117188 C 125.664062 62.949219 123.066406 52.265625 118.578125 43.378906 C 116.105469 38.46875 113.019531 34.074219 109.410156 30.3125 C 97.96875 18.40625 79.714844 11.664062 59.34375 11.816406 C 40.097656 11.957031 21.457031 17.746094 5.496094 23.160156 L 5.359375 22.753906 C 21.351562 17.332031 40.027344 11.53125 59.34375 11.386719 C 79.851562 11.238281 98.203125 18.023438 109.722656 30.015625 C 113.363281 33.804688 116.46875 38.238281 118.964844 43.1875 C 123.476562 52.128906 126.089844 62.867188 126.726562 75.09375 C 127.265625 85.332031 126.507812 95.320312 125.710938 105.898438 C 125.273438 111.699219 124.816406 117.703125 124.601562 123.71875 C 124.011719 140.6875 126.527344 152.675781 132.511719 161.441406 C 133.28125 162.566406 134.117188 163.636719 135 164.640625 C 146.386719 177.539062 163.914062 177.164062 173.351562 175.785156 C 183.476562 174.296875 192.683594 171.1875 202.425781 167.894531 C 205.21875 166.949219 208.113281 165.976562 210.996094 165.050781 C 212.492188 164.570312 213.882812 164.140625 215.253906 163.730469 C 224.996094 160.816406 238.035156 157.601562 252.515625 158.585938 C 269.375 159.734375 285.097656 167.0625 294.570312 178.191406 C 295.65625 179.46875 296.714844 180.851562 297.722656 182.304688 C 302.464844 189.164062 305.550781 196.914062 308.53125 204.414062 C 308.929688 205.410156 309.324219 206.398438 309.722656 207.390625 C 313.65625 217.160156 318.21875 227.28125 326.894531 234.269531 C 334.953125 240.769531 348.542969 243.902344 357.859375 236.910156 L 358.117188 237.253906 C 354.628906 239.871094 350.144531 241.253906 345.25 241.253906 Z M 345.25 241.242188 " fill-opacity="1" fill-rule="nonzero"/><path fill="#ff7cde" d="M 341.359375 240.453125 C 334.632812 240.453125 327.777344 237.90625 322.917969 234.203125 C 314.117188 227.496094 309.117188 217.371094 305.125 208.410156 C 304.640625 207.320312 304.15625 206.21875 303.667969 205.113281 C 300.570312 198.070312 297.371094 190.792969 292.707031 184.292969 C 291.699219 182.886719 290.644531 181.550781 289.570312 180.316406 C 280.261719 169.621094 265.019531 162.175781 248.789062 160.398438 C 234.917969 158.875 222.457031 161.210938 213.152344 163.417969 C 211.855469 163.726562 210.535156 164.050781 209.109375 164.417969 C 206.386719 165.121094 203.660156 165.863281 201.03125 166.585938 C 191.804688 169.113281 183.089844 171.5 173.503906 172.335938 C 164.484375 173.109375 147.726562 172.484375 136.816406 159.597656 C 135.957031 158.589844 135.144531 157.5 134.390625 156.371094 C 126.820312 144.945312 125.96875 129.601562 125.996094 119.050781 C 126.019531 113.597656 126.214844 108.171875 126.402344 102.921875 C 126.789062 92.222656 127.152344 82.117188 126.160156 71.855469 C 125.03125 60.117188 122.089844 49.863281 117.414062 41.382812 C 114.832031 36.6875 111.675781 32.492188 108.046875 28.90625 C 96.535156 17.5625 78.433594 11.117188 58.425781 11.257812 C 39.460938 11.382812 21.027344 16.871094 5.230469 22.003906 L 5.097656 21.597656 C 20.925781 16.453125 39.398438 10.949219 58.421875 10.832031 C 78.566406 10.710938 96.753906 17.175781 108.347656 28.601562 C 112.007812 32.214844 115.183594 36.449219 117.789062 41.179688 C 122.488281 49.707031 125.449219 60.015625 126.582031 71.8125 C 127.582031 82.101562 127.21875 92.222656 126.832031 102.9375 C 126.644531 108.183594 126.445312 113.605469 126.425781 119.058594 C 126.402344 129.550781 127.238281 144.804688 134.75 156.140625 C 135.492188 157.257812 136.296875 158.328125 137.144531 159.324219 C 147.933594 172.0625 164.535156 172.679688 173.46875 171.910156 C 183.019531 171.078125 191.710938 168.695312 200.917969 166.171875 C 203.554688 165.449219 206.277344 164.703125 209.007812 164 C 210.433594 163.636719 211.757812 163.308594 213.058594 163.003906 C 222.398438 160.792969 234.902344 158.449219 248.839844 159.972656 C 265.171875 161.761719 280.519531 169.261719 289.894531 180.039062 C 290.980469 181.285156 292.042969 182.628906 293.054688 184.042969 C 297.746094 190.578125 300.957031 197.882812 304.0625 204.945312 C 304.546875 206.042969 305.03125 207.144531 305.515625 208.234375 C 309.492188 217.148438 314.460938 227.214844 323.179688 233.859375 C 331.179688 239.960938 344.640625 242.875 353.839844 236.25 L 354.089844 236.597656 C 350.328125 239.304688 345.871094 240.449219 341.359375 240.449219 Z M 341.359375 240.453125 " fill-opacity="1" fill-rule="nonzero"/><path fill="#ff7cde" d="M 337.304688 239.691406 C 330.753906 239.691406 324.105469 237.324219 319.207031 233.804688 C 310.351562 227.441406 305.125 217.808594 300.917969 209.28125 C 300.324219 208.074219 299.730469 206.859375 299.140625 205.632812 C 295.941406 199.03125 292.628906 192.207031 288.035156 186.042969 C 287.019531 184.683594 285.960938 183.378906 284.890625 182.171875 C 275.546875 171.671875 261.039062 164.242188 245.085938 161.789062 C 231.785156 159.742188 219.839844 161.203125 210.917969 162.703125 C 209.703125 162.910156 208.445312 163.132812 207.085938 163.382812 C 204.554688 163.855469 202.039062 164.363281 199.605469 164.859375 C 190.875 166.625 182.632812 168.289062 173.574219 168.46875 C 163.171875 168.652344 148.722656 166.351562 138.933594 154.28125 C 138.117188 153.273438 137.332031 152.191406 136.609375 151.066406 C 129.488281 139.980469 128.164062 125.65625 127.808594 114.414062 C 127.667969 109.617188 127.640625 104.847656 127.617188 100.234375 C 127.558594 89.308594 127.503906 78.988281 126.003906 68.601562 C 124.382812 57.300781 121.09375 47.476562 116.230469 39.394531 C 113.542969 34.917969 110.324219 30.917969 106.667969 27.507812 C 95.191406 16.816406 77.476562 10.707031 58.007812 10.707031 C 57.835938 10.707031 57.667969 10.707031 57.496094 10.707031 C 38.824219 10.808594 20.585938 16 4.953125 20.855469 L 4.824219 20.445312 C 20.484375 15.578125 38.761719 10.382812 57.492188 10.277344 C 57.664062 10.277344 57.835938 10.277344 58 10.277344 C 77.582031 10.277344 95.402344 16.429688 106.957031 27.195312 C 110.640625 30.628906 113.882812 34.660156 116.597656 39.171875 C 121.488281 47.300781 124.796875 57.179688 126.425781 68.539062 C 127.929688 78.953125 127.984375 89.289062 128.039062 100.230469 C 128.066406 104.839844 128.089844 109.605469 128.234375 114.394531 C 128.589844 125.582031 129.898438 139.835938 136.964844 150.832031 C 137.679688 151.945312 138.457031 153.011719 139.265625 154.003906 C 148.945312 165.945312 163.253906 168.230469 173.566406 168.035156 C 182.582031 167.855469 190.808594 166.195312 199.519531 164.433594 C 201.957031 163.941406 204.476562 163.429688 207.003906 162.960938 C 208.371094 162.707031 209.625 162.484375 210.847656 162.277344 C 219.796875 160.773438 231.789062 159.308594 245.152344 161.367188 C 261.203125 163.832031 275.804688 171.308594 285.210938 181.882812 C 286.292969 183.101562 287.359375 184.414062 288.382812 185.785156 C 293 191.980469 296.316406 198.824219 299.53125 205.441406 C 300.121094 206.660156 300.710938 207.878906 301.308594 209.082031 C 305.488281 217.566406 310.691406 227.144531 319.464844 233.449219 C 327.601562 239.304688 340.644531 241.921875 349.824219 235.59375 L 350.070312 235.945312 C 346.265625 238.566406 341.808594 239.683594 337.3125 239.683594 Z M 337.304688 239.691406 " fill-opacity="1" fill-rule="nonzero"/><path fill="#ff7cde" d="M 333.320312 238.859375 C 326.875 238.859375 320.332031 236.675781 315.503906 233.40625 C 306.582031 227.382812 301.128906 218.242188 296.71875 210.144531 C 295.992188 208.8125 295.273438 207.460938 294.546875 206.105469 C 291.265625 199.957031 287.871094 193.601562 283.375 187.792969 C 282.347656 186.46875 281.292969 185.203125 280.21875 184.027344 C 270.988281 173.886719 256.835938 166.289062 241.390625 163.183594 C 228.699219 160.625 217.246094 161.199219 208.6875 161.984375 C 207.460938 162.09375 206.253906 162.21875 205.058594 162.34375 C 202.792969 162.585938 200.539062 162.863281 198.355469 163.128906 C 190.066406 164.132812 182.238281 165.085938 173.652344 164.597656 C 159.621094 163.773438 148.351562 158.363281 141.066406 148.957031 C 140.285156 147.957031 139.53125 146.875 138.832031 145.757812 C 132.089844 134.921875 130.371094 120.832031 129.625 109.769531 C 129.363281 105.746094 129.171875 101.738281 128.988281 97.867188 C 128.445312 86.59375 127.933594 75.945312 125.859375 65.347656 C 123.742188 54.484375 120.109375 45.085938 115.058594 37.40625 C 112.261719 33.148438 108.972656 29.347656 105.292969 26.109375 C 93.734375 15.960938 76.148438 10.160156 56.992188 10.160156 C 56.847656 10.160156 56.710938 10.160156 56.570312 10.160156 C 38.191406 10.238281 20.148438 15.132812 4.675781 19.707031 L 4.558594 19.296875 C 20.054688 14.714844 38.128906 9.8125 56.570312 9.730469 C 75.996094 9.648438 93.859375 15.496094 105.582031 25.789062 C 109.285156 29.054688 112.597656 32.882812 115.417969 37.171875 C 120.5 44.898438 124.160156 54.347656 126.285156 65.265625 C 128.363281 75.894531 128.875 86.554688 129.417969 97.84375 C 129.605469 101.71875 129.796875 105.71875 130.058594 109.738281 C 130.800781 120.75 132.503906 134.773438 139.199219 145.527344 C 139.894531 146.632812 140.636719 147.699219 141.40625 148.691406 C 150.515625 160.449219 163.988281 163.597656 173.683594 164.167969 C 182.226562 164.652344 190.039062 163.707031 198.308594 162.703125 C 200.492188 162.4375 202.742188 162.164062 205.015625 161.917969 C 206.210938 161.789062 207.421875 161.671875 208.648438 161.554688 C 217.238281 160.765625 228.730469 160.191406 241.476562 162.757812 C 257.007812 165.882812 271.246094 173.53125 280.539062 183.734375 C 281.617188 184.921875 282.683594 186.199219 283.710938 187.527344 C 288.230469 193.367188 291.636719 199.738281 294.925781 205.898438 C 295.648438 207.257812 296.367188 208.605469 297.097656 209.9375 C 301.484375 217.988281 306.902344 227.082031 315.742188 233.050781 C 323.816406 238.507812 336.730469 240.914062 345.800781 234.949219 L 346.039062 235.308594 C 342.25 237.796875 337.808594 238.859375 333.320312 238.859375 Z M 333.320312 238.859375 " fill-opacity="1" fill-rule="nonzero"/><path fill="#ff7cde" d="M 329.292969 238.101562 C 322.863281 238.101562 316.457031 235.96875 311.792969 233.011719 C 302.789062 227.320312 297.121094 218.675781 292.511719 211.019531 C 291.625 209.539062 290.726562 208.011719 289.855469 206.53125 C 286.523438 200.851562 283.078125 194.980469 278.699219 189.546875 C 277.667969 188.265625 276.605469 187.03125 275.53125 185.882812 C 266.425781 176.113281 252.628906 168.34375 237.679688 164.570312 C 225.75 161.558594 215.195312 161.207031 206.441406 161.261719 C 205.285156 161.273438 204.140625 161.285156 203.019531 161.304688 C 201.09375 161.34375 199.210938 161.398438 197.351562 161.457031 C 189.410156 161.691406 181.914062 161.914062 173.722656 160.726562 C 160.382812 158.761719 150.109375 153.011719 143.1875 143.640625 C 142.441406 142.636719 141.71875 141.5625 141.046875 140.449219 C 134.734375 129.960938 132.644531 116.710938 131.4375 105.128906 C 131.121094 102.015625 130.832031 98.914062 130.558594 95.917969 C 129.476562 84.144531 128.453125 73.019531 125.707031 62.097656 C 123.101562 51.683594 119.121094 42.707031 113.875 35.425781 C 110.972656 31.382812 107.617188 27.78125 103.914062 24.710938 C 92.273438 15.105469 74.808594 9.609375 55.964844 9.609375 C 55.855469 9.609375 55.75 9.609375 55.640625 9.609375 C 37.550781 9.671875 19.707031 14.261719 4.402344 18.558594 L 4.289062 18.148438 C 19.621094 13.84375 37.496094 9.246094 55.640625 9.179688 C 55.75 9.179688 55.859375 9.179688 55.972656 9.179688 C 74.914062 9.179688 92.476562 14.710938 104.191406 24.382812 C 107.925781 27.472656 111.300781 31.101562 114.230469 35.171875 C 119.507812 42.503906 123.511719 51.523438 126.128906 61.992188 C 128.878906 72.949219 129.90625 84.082031 130.992188 95.875 C 131.265625 98.871094 131.554688 101.976562 131.871094 105.082031 C 133.074219 116.613281 135.152344 129.808594 141.421875 140.226562 C 142.085938 141.328125 142.800781 142.390625 143.535156 143.382812 C 150.390625 152.660156 160.566406 158.351562 173.789062 160.304688 C 181.949219 161.484375 189.429688 161.265625 197.347656 161.027344 C 199.210938 160.972656 201.09375 160.917969 203.023438 160.878906 C 204.148438 160.855469 205.289062 160.839844 206.449219 160.835938 C 215.238281 160.777344 225.824219 161.128906 237.796875 164.15625 C 252.820312 167.945312 266.695312 175.761719 275.859375 185.589844 C 276.933594 186.746094 278.003906 187.984375 279.042969 189.273438 C 283.441406 194.734375 286.894531 200.621094 290.238281 206.3125 C 291.105469 207.792969 292.003906 209.320312 292.890625 210.796875 C 297.46875 218.414062 303.109375 227.007812 312.027344 232.648438 C 319.789062 237.5625 332.410156 240.175781 341.789062 234.300781 L 342.015625 234.664062 C 338.132812 237.09375 333.710938 238.101562 329.300781 238.101562 Z M 329.292969 238.101562 " fill-opacity="1" fill-rule="nonzero"/><path fill="#ff7cde" d="M 325.28125 237.273438 C 318.964844 237.273438 312.679688 235.328125 308.085938 232.617188 C 299.902344 227.800781 294.265625 220.847656 288.3125 211.886719 C 287.226562 210.246094 286.125 208.542969 285.058594 206.886719 C 281.710938 201.695312 278.253906 196.328125 274.035156 191.296875 C 272.988281 190.050781 271.921875 188.855469 270.859375 187.742188 C 258.582031 174.890625 242.484375 168.582031 233.976562 165.964844 C 222.925781 162.558594 213.132812 161.347656 204.207031 160.542969 C 203.117188 160.445312 202.042969 160.355469 200.988281 160.269531 C 199.566406 160.15625 198.167969 160.050781 196.792969 159.949219 C 189.054688 159.375 181.746094 158.824219 173.792969 156.855469 C 161.171875 153.6875 151.859375 147.625 145.316406 138.320312 C 144.609375 137.316406 143.917969 136.246094 143.269531 135.140625 C 137.09375 124.515625 134.859375 111.683594 133.253906 100.484375 C 132.972656 98.484375 132.703125 96.5 132.433594 94.53125 C 130.722656 82.039062 129.109375 70.238281 125.558594 58.84375 C 122.46875 48.878906 118.144531 40.324219 112.703125 33.433594 C 109.691406 29.609375 106.269531 26.203125 102.539062 23.3125 C 90.644531 14.117188 73.75 9.058594 54.953125 9.058594 C 54.871094 9.058594 54.792969 9.058594 54.710938 9.058594 C 36.914062 9.101562 19.265625 13.390625 4.125 17.40625 L 4.011719 16.992188 C 19.183594 12.964844 36.863281 8.667969 54.710938 8.625 C 54.792969 8.625 54.875 8.625 54.953125 8.625 C 73.847656 8.625 90.828125 13.714844 102.800781 22.96875 C 106.558594 25.882812 110.003906 29.3125 113.035156 33.160156 C 118.511719 40.097656 122.859375 48.699219 125.964844 58.714844 C 129.527344 70.144531 131.140625 81.960938 132.851562 94.472656 C 133.121094 96.4375 133.390625 98.421875 133.675781 100.421875 C 135.277344 111.582031 137.496094 124.367188 143.636719 134.921875 C 144.277344 136.019531 144.957031 137.078125 145.65625 138.070312 C 152.140625 147.292969 161.375 153.296875 173.890625 156.433594 C 181.808594 158.398438 189.101562 158.941406 196.820312 159.515625 C 198.199219 159.617188 199.59375 159.722656 201.015625 159.835938 C 202.070312 159.921875 203.148438 160.011719 204.234375 160.109375 C 213.191406 160.917969 223.003906 162.128906 234.097656 165.546875 C 242.640625 168.179688 258.820312 174.515625 271.160156 187.4375 C 272.230469 188.558594 273.300781 189.757812 274.355469 191.015625 C 278.59375 196.066406 282.058594 201.449219 285.410156 206.648438 C 286.472656 208.296875 287.574219 210.007812 288.660156 211.644531 C 294.578125 220.550781 300.179688 227.460938 308.292969 232.238281 C 315.988281 236.78125 328.488281 239.160156 337.757812 233.644531 L 337.976562 234.011719 C 334.101562 236.320312 329.675781 237.265625 325.265625 237.265625 Z M 325.28125 237.273438 " fill-opacity="1" fill-rule="nonzero"/><path fill="#ff7cde" d="M 321.171875 236.507812 C 315.070312 236.507812 309.007812 234.753906 304.375 232.21875 C 295.605469 227.433594 289.453125 220.039062 284.109375 212.757812 C 282.769531 210.933594 281.476562 209.097656 280.105469 207.160156 C 276.800781 202.480469 273.382812 197.644531 269.363281 193.046875 C 268.308594 191.835938 267.238281 190.675781 266.179688 189.59375 C 254.140625 177.296875 238.515625 170.378906 230.277344 167.351562 C 219.886719 163.53125 210.59375 161.53125 201.964844 159.820312 C 200.941406 159.617188 199.9375 159.421875 198.953125 159.222656 L 197.0625 158.859375 C 188.890625 157.28125 181.835938 155.921875 173.859375 152.976562 C 166.378906 150.191406 155.503906 145.089844 147.4375 133 C 146.761719 132 146.113281 130.933594 145.492188 129.832031 C 139.789062 119.660156 137.21875 107.464844 135.070312 95.84375 L 134.722656 93.941406 C 132.273438 80.421875 129.964844 67.65625 125.414062 55.59375 C 121.839844 46.089844 117.171875 37.960938 111.523438 31.449219 C 108.40625 27.84375 104.921875 24.636719 101.164062 21.914062 C 89.183594 13.269531 72.40625 8.507812 53.910156 8.507812 L 53.78125 8.507812 C 36.28125 8.53125 18.828125 12.523438 3.847656 16.265625 L 3.742188 15.847656 C 18.75 12.105469 36.230469 8.101562 53.78125 8.082031 C 72.425781 8.0625 89.335938 12.847656 101.410156 21.566406 C 105.195312 24.308594 108.707031 27.539062 111.84375 31.167969 C 117.523438 37.726562 122.222656 45.890625 125.8125 55.449219 C 130.375 67.550781 132.6875 80.332031 135.144531 93.871094 L 135.492188 95.773438 C 137.628906 107.359375 140.191406 119.515625 145.863281 129.632812 C 146.480469 130.722656 147.128906 131.777344 147.792969 132.769531 C 155.789062 144.757812 166.582031 149.820312 174.007812 152.585938 C 181.953125 155.519531 188.992188 156.875 197.144531 158.453125 L 199.035156 158.816406 C 200.019531 159.007812 201.023438 159.207031 202.046875 159.414062 C 210.691406 161.128906 220.007812 163.132812 230.421875 166.960938 C 238.695312 170.003906 254.386719 176.949219 266.484375 189.304688 C 267.546875 190.394531 268.625 191.558594 269.683594 192.777344 C 273.714844 197.390625 277.140625 202.234375 280.453125 206.921875 C 281.816406 208.859375 283.113281 210.6875 284.453125 212.515625 C 289.765625 219.753906 295.878906 227.105469 304.578125 231.855469 C 312.460938 236.167969 324.535156 238.199219 333.742188 233.011719 L 333.953125 233.382812 C 330.023438 235.59375 325.585938 236.515625 321.167969 236.515625 Z M 321.171875 236.507812 " fill-opacity="1" fill-rule="nonzero"/><path fill="#ff7cde" d="M 316.921875 235.734375 C 311.507812 235.734375 305.828125 234.425781 300.671875 231.824219 C 291.769531 227.351562 285.433594 220.4375 279.910156 213.628906 C 278.253906 211.585938 276.65625 209.515625 274.964844 207.324219 C 271.761719 203.1875 268.457031 198.910156 264.703125 194.796875 C 263.640625 193.628906 262.5625 192.5 261.503906 191.453125 C 250.34375 180.347656 236.347656 172.972656 226.574219 168.742188 C 217.441406 164.789062 209.34375 162.1875 202.199219 159.898438 C 201.359375 159.625 200.535156 159.359375 199.71875 159.101562 C 198.765625 158.792969 197.828125 158.488281 196.917969 158.1875 C 188.699219 155.511719 181.792969 153.144531 173.929688 149.105469 C 166.433594 145.222656 156.886719 139.273438 149.566406 127.6875 C 148.929688 126.6875 148.308594 125.625 147.714844 124.527344 C 142.125 114.171875 139.355469 102.027344 136.914062 91.304688 L 136.890625 91.203125 C 133.699219 76.988281 130.621094 64.253906 125.273438 52.34375 C 121.226562 43.300781 116.207031 35.601562 110.355469 29.460938 C 107.132812 26.074219 103.578125 23.066406 99.792969 20.515625 C 87.726562 12.417969 71.0625 7.957031 52.859375 7.957031 C 35.652344 7.957031 18.402344 11.648438 3.578125 15.113281 L 3.476562 14.695312 C 18.324219 11.230469 35.609375 7.53125 52.859375 7.53125 C 71.148438 7.53125 87.898438 12.019531 100.03125 20.164062 C 103.84375 22.734375 107.421875 25.761719 110.664062 29.167969 C 116.550781 35.34375 121.597656 43.085938 125.664062 52.175781 C 131.023438 64.121094 134.105469 76.878906 137.308594 91.117188 L 137.328125 91.222656 C 139.765625 101.910156 142.527344 114.027344 148.085938 124.332031 C 148.679688 125.417969 149.296875 126.472656 149.925781 127.464844 C 157.191406 138.96875 166.671875 144.871094 174.125 148.730469 C 181.957031 152.753906 188.851562 155.113281 197.046875 157.785156 C 197.960938 158.085938 198.890625 158.386719 199.847656 158.695312 C 200.65625 158.957031 201.484375 159.222656 202.324219 159.492188 C 209.476562 161.789062 217.582031 164.390625 226.738281 168.359375 C 236.542969 172.605469 250.59375 180.003906 261.800781 191.15625 C 262.863281 192.214844 263.945312 193.34375 265.011719 194.519531 C 268.777344 198.644531 272.089844 202.929688 275.292969 207.074219 C 276.984375 209.257812 278.578125 211.324219 280.238281 213.367188 C 285.730469 220.136719 292.027344 227.011719 300.855469 231.453125 C 310.390625 236.257812 321.71875 236.613281 329.722656 232.359375 L 329.925781 232.738281 C 326.144531 234.746094 321.632812 235.746094 316.917969 235.746094 Z M 316.921875 235.734375 " fill-opacity="1" fill-rule="nonzero"/><path fill="#ff7cde" d="M 312.828125 234.921875 C 307.542969 234.921875 302.003906 233.753906 296.964844 231.429688 C 287.894531 227.261719 281.132812 220.535156 275.714844 214.503906 C 273.644531 212.203125 271.65625 209.847656 269.550781 207.355469 C 266.546875 203.804688 263.445312 200.128906 260.035156 196.554688 C 258.9375 195.402344 257.890625 194.339844 256.832031 193.3125 C 248.171875 184.917969 236.746094 177.121094 222.871094 170.132812 C 216.375 166.855469 210.378906 164.175781 205.09375 161.816406 C 202.402344 160.613281 199.855469 159.476562 197.480469 158.367188 C 196.589844 157.953125 195.726562 157.542969 194.882812 157.132812 C 186.492188 153.113281 180.445312 149.660156 174 145.21875 C 166.300781 139.871094 158.269531 133.398438 151.695312 122.363281 C 151.097656 121.371094 150.507812 120.3125 149.9375 119.21875 C 145 109.695312 142.019531 98.730469 139.390625 89.058594 C 139.164062 88.21875 138.933594 87.386719 138.710938 86.5625 C 134.8125 72.128906 131.007812 60.230469 125.136719 49.089844 C 120.628906 40.519531 115.257812 33.242188 109.183594 27.46875 C 105.859375 24.304688 102.238281 21.496094 98.421875 19.113281 C 86.304688 11.582031 69.796875 7.425781 51.933594 7.402344 L 51.796875 7.402344 C 34.9375 7.402344 17.929688 10.789062 3.300781 13.957031 L 3.210938 13.539062 C 17.859375 10.359375 34.898438 6.976562 51.796875 6.976562 L 51.933594 6.976562 C 69.875 6.996094 86.464844 11.179688 98.648438 18.75 C 102.492188 21.144531 106.132812 23.976562 109.480469 27.160156 C 115.589844 32.964844 120.984375 40.277344 125.511719 48.894531 C 131.40625 60.066406 135.214844 71.992188 139.125 86.453125 C 139.347656 87.273438 139.574219 88.105469 139.800781 88.945312 C 142.421875 98.597656 145.398438 109.535156 150.316406 119.023438 C 150.878906 120.105469 151.46875 121.15625 152.058594 122.144531 C 158.59375 133.109375 166.582031 139.550781 174.238281 144.871094 C 180.660156 149.300781 186.695312 152.746094 195.0625 156.75 C 195.90625 157.160156 196.773438 157.570312 197.652344 157.980469 C 200.027344 159.089844 202.570312 160.226562 205.257812 161.425781 C 210.550781 163.792969 216.546875 166.46875 223.058594 169.75 C 236.96875 176.757812 248.429688 184.578125 257.121094 193.003906 C 258.183594 194.035156 259.238281 195.097656 260.339844 196.257812 C 263.753906 199.84375 266.867188 203.523438 269.875 207.082031 C 271.976562 209.570312 273.964844 211.921875 276.027344 214.214844 C 281.414062 220.214844 288.136719 226.90625 297.136719 231.039062 C 306.578125 235.394531 317.796875 235.65625 325.703125 231.703125 L 325.898438 232.085938 C 322.105469 233.980469 317.5625 234.921875 312.820312 234.921875 Z M 312.828125 234.921875 " fill-opacity="1" fill-rule="nonzero"/><path fill="#ff7cde" d="M 308.6875 234.15625 C 303.574219 234.15625 298.230469 233.109375 293.257812 231.03125 C 284.015625 227.179688 277.078125 220.953125 271.515625 215.367188 C 268.914062 212.761719 266.414062 210.050781 263.769531 207.175781 C 261.085938 204.265625 258.316406 201.257812 255.367188 198.296875 C 254.257812 197.179688 253.207031 196.15625 252.148438 195.160156 C 243.832031 187.320312 233.039062 179.582031 219.164062 171.515625 C 215.75 169.53125 212.554688 167.722656 209.460938 165.972656 C 204.054688 162.914062 199.386719 160.269531 195.230469 157.628906 C 194.40625 157.113281 193.605469 156.589844 192.839844 156.078125 C 186.230469 151.71875 180.789062 147.445312 174.0625 141.332031 C 168.3125 136.074219 160.445312 128.871094 153.816406 117.042969 C 153.253906 116.050781 152.695312 114.996094 152.152344 113.910156 C 147.898438 105.351562 144.988281 96.101562 142.179688 87.152344 C 141.621094 85.375 141.074219 83.628906 140.523438 81.921875 C 135.523438 66.226562 130.878906 55.4375 124.984375 45.839844 C 120.023438 37.742188 114.3125 30.890625 108.007812 25.480469 C 104.582031 22.535156 100.894531 19.921875 97.046875 17.710938 C 81.449219 8.789062 63.398438 6.882812 51.003906 6.851562 C 50.898438 6.851562 50.792969 6.851562 50.683594 6.851562 C 34.203125 6.851562 18.105469 9.792969 3.023438 12.804688 L 2.9375 12.386719 C 18.140625 9.347656 34.363281 6.378906 51.003906 6.421875 C 63.453125 6.453125 81.582031 8.367188 97.257812 17.339844 C 101.128906 19.5625 104.839844 22.195312 108.285156 25.152344 C 114.625 30.59375 120.367188 37.476562 125.347656 45.613281 C 131.261719 55.238281 135.921875 66.058594 140.933594 81.789062 C 141.480469 83.5 142.027344 85.25 142.589844 87.023438 C 145.394531 95.953125 148.296875 105.1875 152.539062 113.71875 C 153.078125 114.792969 153.632812 115.84375 154.1875 116.832031 C 160.78125 128.605469 168.625 135.777344 174.351562 141.015625 C 181.058594 147.113281 186.484375 151.375 193.074219 155.722656 C 193.839844 156.234375 194.640625 156.75 195.460938 157.269531 C 199.609375 159.902344 204.273438 162.539062 209.675781 165.597656 C 212.769531 167.351562 215.96875 169.160156 219.378906 171.144531 C 233.289062 179.226562 244.101562 186.984375 252.445312 194.847656 C 253.503906 195.847656 254.554688 196.875 255.671875 198 C 258.621094 200.964844 261.398438 203.976562 264.082031 206.886719 C 266.722656 209.753906 269.21875 212.46875 271.8125 215.066406 C 277.351562 220.621094 284.242188 226.8125 293.421875 230.636719 C 302.914062 234.609375 313.75 234.769531 321.695312 231.054688 L 321.875 231.441406 C 317.992188 233.253906 313.4375 234.160156 308.683594 234.160156 Z M 308.6875 234.15625 " fill-opacity="1" fill-rule="nonzero"/><path fill="#ff7cde" d="M 304.507812 233.390625 C 299.582031 233.390625 294.445312 232.472656 289.550781 230.636719 C 280.054688 227.085938 272.679688 221.078125 267.316406 216.242188 C 264 213.253906 260.820312 210.078125 257.453125 206.707031 C 255.277344 204.53125 253.027344 202.285156 250.703125 200.054688 C 249.574219 198.964844 248.515625 197.972656 247.476562 197.019531 C 237.253906 187.652344 225.59375 179.660156 215.464844 172.902344 C 207.054688 167.292969 199.109375 161.992188 192.992188 156.898438 C 192.246094 156.277344 191.511719 155.644531 190.808594 155.023438 C 184.21875 149.246094 179.164062 143.410156 174.140625 137.441406 L 173.027344 136.113281 C 167.941406 130.054688 161.609375 122.519531 155.949219 111.722656 C 155.425781 110.730469 154.902344 109.683594 154.386719 108.601562 C 150.875 101.226562 148.105469 93.394531 145.425781 85.816406 C 144.375 82.84375 143.382812 80.039062 142.355469 77.285156 C 137.070312 62.976562 131.511719 51.953125 124.851562 42.585938 C 119.453125 34.96875 113.390625 28.542969 106.839844 23.492188 C 103.320312 20.769531 99.566406 18.355469 95.679688 16.316406 C 83.292969 9.828125 67.527344 6.367188 50.085938 6.300781 C 33.8125 6.234375 17.773438 8.914062 2.753906 11.65625 L 2.675781 11.238281 C 17.714844 8.492188 33.773438 5.804688 50.085938 5.875 C 67.59375 5.9375 83.429688 9.417969 95.875 15.9375 C 99.785156 17.992188 103.558594 20.417969 107.101562 23.15625 C 113.6875 28.238281 119.773438 34.691406 125.199219 42.34375 C 131.878906 51.738281 137.453125 62.792969 142.753906 77.136719 C 143.78125 79.898438 144.773438 82.707031 145.828125 85.679688 C 148.507812 93.242188 151.269531 101.066406 154.769531 108.421875 C 155.285156 109.503906 155.8125 110.542969 156.332031 111.527344 C 161.972656 122.289062 168.285156 129.800781 173.355469 135.84375 L 174.472656 137.171875 C 179.484375 143.121094 184.527344 148.945312 191.09375 154.707031 C 191.792969 155.324219 192.527344 155.953125 193.269531 156.570312 C 199.371094 161.648438 207.304688 166.945312 215.703125 172.546875 C 225.847656 179.3125 237.527344 187.3125 247.769531 196.703125 C 248.8125 197.660156 249.867188 198.652344 251.003906 199.742188 C 253.332031 201.972656 255.585938 204.222656 257.761719 206.398438 C 261.125 209.757812 264.300781 212.933594 267.605469 215.914062 C 272.941406 220.726562 280.277344 226.699219 289.707031 230.230469 C 299.242188 233.808594 309.703125 233.871094 317.683594 230.398438 L 317.855469 230.792969 C 313.875 232.523438 309.289062 233.386719 304.511719 233.386719 Z M 304.507812 233.390625 " fill-opacity="1" fill-rule="nonzero"/><path fill="#ff7cde" d="M 300.261719 232.589844 C 295.5 232.589844 290.558594 231.808594 285.839844 230.238281 C 278.253906 227.722656 271.246094 223.675781 263.113281 217.113281 C 258.800781 213.632812 254.683594 209.816406 250.324219 205.769531 C 248.914062 204.464844 247.488281 203.140625 246.03125 201.808594 C 244.847656 200.722656 243.789062 199.761719 242.792969 198.875 C 234.363281 191.375 225.058594 184.347656 216.84375 178.148438 C 215.101562 176.832031 213.398438 175.546875 211.75 174.292969 C 201.863281 166.757812 195.578125 161.335938 190.742188 156.164062 C 190.070312 155.445312 189.40625 154.707031 188.765625 153.972656 C 183.308594 147.742188 179.386719 141.632812 174.847656 134.558594 L 174.207031 133.554688 C 173.355469 132.230469 172.46875 130.863281 171.542969 129.449219 C 167.390625 123.078125 162.679688 115.859375 158.0625 106.40625 C 157.578125 105.421875 157.085938 104.375 156.59375 103.292969 C 153.941406 97.453125 151.574219 91.359375 149.292969 85.464844 C 147.546875 80.976562 145.902344 76.734375 144.160156 72.648438 C 138.535156 59.371094 132.171875 48.472656 124.699219 39.34375 C 118.878906 32.210938 112.46875 26.210938 105.65625 21.511719 C 102.042969 19.015625 98.21875 16.800781 94.296875 14.921875 C 81.875 9.011719 66.261719 5.84375 49.144531 5.757812 C 33.171875 5.671875 17.332031 8.066406 2.464844 10.519531 L 2.398438 10.09375 C 17.28125 7.640625 33.160156 5.25 49.148438 5.328125 C 66.328125 5.414062 82.003906 8.597656 94.480469 14.539062 C 98.425781 16.421875 102.265625 18.648438 105.902344 21.160156 C 112.75 25.886719 119.1875 31.910156 125.03125 39.074219 C 132.53125 48.238281 138.917969 59.167969 144.558594 72.484375 C 146.304688 76.582031 147.949219 80.828125 149.695312 85.316406 C 151.976562 91.207031 154.339844 97.296875 156.984375 103.121094 C 157.480469 104.199219 157.972656 105.238281 158.453125 106.21875 C 163.0625 115.652344 167.761719 122.863281 171.910156 129.21875 C 172.835938 130.636719 173.722656 132 174.570312 133.328125 L 175.210938 134.332031 C 179.746094 141.390625 183.65625 147.484375 189.089844 153.691406 C 189.726562 154.425781 190.386719 155.15625 191.058594 155.875 C 195.875 161.027344 202.144531 166.433594 212.011719 173.953125 C 213.65625 175.210938 215.363281 176.496094 217.101562 177.808594 C 225.320312 184.015625 234.632812 191.050781 243.074219 198.5625 C 244.070312 199.449219 245.128906 200.410156 246.316406 201.496094 C 247.769531 202.824219 249.195312 204.148438 250.609375 205.457031 C 254.96875 209.496094 259.082031 213.3125 263.378906 216.78125 C 271.460938 223.3125 278.433594 227.339844 285.96875 229.835938 C 295.394531 232.972656 305.742188 232.941406 313.652344 229.757812 L 313.808594 230.15625 C 309.773438 231.78125 305.109375 232.59375 300.253906 232.59375 Z M 300.261719 232.589844 " fill-opacity="1" fill-rule="nonzero"/><path fill="#ff7cde" d="M 295.953125 231.828125 C 291.410156 231.828125 286.710938 231.167969 282.136719 229.839844 C 274.449219 227.621094 267.070312 223.851562 258.917969 217.976562 C 253.164062 213.832031 247.695312 209.070312 241.902344 204.023438 L 241.367188 203.554688 C 240.296875 202.621094 239.214844 201.679688 238.121094 200.730469 C 232.953125 196.273438 227.597656 191.882812 222.417969 187.644531 C 217.316406 183.464844 212.496094 179.519531 208.058594 175.671875 C 199.308594 168.089844 193.101562 161.652344 188.519531 155.417969 C 187.910156 154.59375 187.316406 153.75 186.746094 152.910156 C 182.332031 146.410156 179.179688 139.839844 175.847656 132.890625 C 175.335938 131.824219 174.816406 130.75 174.289062 129.660156 C 172.847656 126.667969 171.246094 123.519531 169.542969 120.191406 C 166.703125 114.636719 163.484375 108.335938 160.199219 101.078125 C 159.757812 100.105469 159.308594 99.09375 158.824219 97.980469 C 157.25 94.339844 155.714844 90.597656 154.222656 86.980469 C 151.59375 80.578125 148.871094 73.957031 145.988281 68 C 139.949219 55.449219 132.945312 45.007812 124.570312 36.082031 C 118.347656 29.4375 111.59375 23.863281 104.496094 19.515625 C 100.789062 17.242188 96.902344 15.222656 92.933594 13.515625 C 80.488281 8.183594 65.027344 5.308594 48.230469 5.203125 C 32.597656 5.101562 16.917969 7.203125 2.199219 9.363281 L 2.136719 8.9375 C 16.871094 6.777344 32.578125 4.6875 48.230469 4.773438 C 65.085938 4.875 80.597656 7.761719 93.101562 13.125 C 97.085938 14.835938 100.992188 16.867188 104.71875 19.152344 C 111.847656 23.523438 118.636719 29.121094 124.882812 35.792969 C 133.289062 44.75 140.320312 55.226562 146.378906 67.816406 C 149.265625 73.78125 151.992188 80.410156 154.625 86.816406 C 156.113281 90.4375 157.648438 94.175781 159.222656 97.816406 C 159.707031 98.925781 160.152344 99.933594 160.59375 100.902344 C 163.878906 108.152344 167.09375 114.445312 169.929688 120 C 171.628906 123.328125 173.238281 126.476562 174.679688 129.476562 C 175.207031 130.566406 175.726562 131.644531 176.234375 132.707031 C 179.566406 139.644531 182.707031 146.195312 187.105469 152.667969 C 187.671875 153.503906 188.265625 154.347656 188.867188 155.167969 C 193.429688 161.375 199.617188 167.789062 208.339844 175.351562 C 212.773438 179.191406 217.589844 183.136719 222.691406 187.3125 C 227.875 191.554688 233.238281 195.941406 238.402344 200.410156 C 239.496094 201.355469 240.582031 202.300781 241.652344 203.234375 L 242.1875 203.699219 C 247.972656 208.738281 253.433594 213.5 259.167969 217.628906 C 267.28125 223.472656 274.617188 227.222656 282.253906 229.429688 C 291.699219 232.167969 301.679688 232.046875 309.640625 229.105469 L 309.792969 229.507812 C 305.605469 231.054688 300.871094 231.828125 295.953125 231.828125 Z M 295.953125 231.828125 " fill-opacity="1" fill-rule="nonzero"/><path fill="#ff7cde" d="M 291.503906 231.042969 C 287.191406 231.042969 282.753906 230.511719 278.433594 229.445312 C 270.523438 227.496094 262.988281 224.128906 254.722656 218.851562 C 248.292969 214.742188 242.265625 209.917969 236.707031 205.3125 C 235.628906 204.417969 234.539062 203.507812 233.445312 202.589844 L 231.878906 201.28125 C 222.320312 193.28125 212.429688 185.007812 204.355469 177.058594 C 196.378906 169.207031 190.464844 161.890625 186.289062 154.683594 C 185.746094 153.753906 185.21875 152.800781 184.722656 151.851562 C 181.027344 144.832031 178.574219 137.804688 175.984375 130.359375 C 175.457031 128.847656 174.925781 127.316406 174.375 125.769531 C 171.628906 118.003906 168.125 109.617188 164.0625 99.910156 L 162.328125 95.757812 C 161.898438 94.738281 161.476562 93.710938 161.046875 92.671875 C 156.957031 82.695312 152.726562 72.375 147.8125 63.359375 C 141.351562 51.445312 133.703125 41.457031 124.433594 32.828125 C 117.832031 26.671875 110.730469 21.519531 103.328125 17.523438 C 99.535156 15.472656 95.578125 13.648438 91.5625 12.113281 C 78.921875 7.285156 64.035156 4.773438 47.304688 4.644531 C 32.03125 4.53125 16.503906 6.339844 1.925781 8.203125 L 1.871094 7.78125 C 16.464844 5.914062 31.988281 4.105469 47.308594 4.214844 C 64.089844 4.34375 79.03125 6.863281 91.714844 11.710938 C 95.746094 13.257812 99.722656 15.082031 103.53125 17.140625 C 110.964844 21.160156 118.097656 26.332031 124.726562 32.511719 C 134.035156 41.171875 141.707031 51.195312 148.191406 63.148438 C 153.113281 72.183594 157.351562 82.515625 161.445312 92.507812 C 161.875 93.542969 162.296875 94.566406 162.726562 95.585938 L 164.460938 99.738281 C 168.527344 109.449219 172.039062 117.839844 174.785156 125.621094 C 175.332031 127.167969 175.867188 128.695312 176.394531 130.214844 C 178.984375 137.640625 181.425781 144.65625 185.109375 151.644531 C 185.605469 152.589844 186.128906 153.539062 186.664062 154.464844 C 190.824219 161.636719 196.710938 168.925781 204.660156 176.75 C 212.726562 184.6875 222.601562 192.953125 232.15625 200.945312 L 233.726562 202.257812 C 234.816406 203.167969 235.902344 204.078125 236.980469 204.972656 C 242.527344 209.566406 248.546875 214.386719 254.953125 218.480469 C 263.179688 223.738281 270.675781 227.085938 278.535156 229.027344 C 287.84375 231.328125 297.71875 231.117188 305.632812 228.453125 L 305.769531 228.859375 C 301.457031 230.3125 296.570312 231.042969 291.511719 231.042969 Z M 291.503906 231.042969 " fill-opacity="1" fill-rule="nonzero"/><path fill="#ff7cde" d="M 286.933594 230.292969 C 282.914062 230.292969 278.796875 229.878906 274.726562 229.046875 C 266.679688 227.40625 258.761719 224.355469 250.523438 219.714844 C 244.777344 216.484375 238.90625 212.460938 232.035156 207.058594 C 231 206.246094 229.929688 205.390625 228.769531 204.445312 C 216.9375 194.859375 207.738281 186.351562 200.648438 178.445312 C 193.328125 170.273438 187.746094 162.03125 184.054688 153.945312 C 183.582031 152.917969 183.128906 151.855469 182.695312 150.792969 C 179.570312 143.101562 177.726562 135.429688 175.773438 127.304688 C 175.339844 125.507812 174.90625 123.707031 174.457031 121.882812 C 171.996094 111.914062 168.722656 101.628906 164.449219 90.441406 C 164.058594 89.421875 163.664062 88.398438 163.261719 87.367188 C 158.757812 75.753906 154.300781 66.382812 149.625 58.722656 C 142.824219 47.53125 134.300781 37.726562 124.285156 29.578125 C 117.324219 23.90625 109.875 19.179688 102.148438 15.539062 C 98.28125 13.714844 94.257812 12.089844 90.183594 10.71875 C 77.550781 6.476562 62.8125 4.25 46.371094 4.105469 C 31.441406 3.96875 16.691406 5.429688 1.644531 7.066406 L 1.597656 6.640625 C 16.660156 5 31.421875 3.539062 46.375 3.675781 C 62.859375 3.824219 77.644531 6.058594 90.320312 10.316406 C 94.40625 11.691406 98.445312 13.324219 102.328125 15.160156 C 110.089844 18.816406 117.566406 23.558594 124.550781 29.253906 C 134.605469 37.433594 143.160156 47.273438 149.984375 58.507812 C 154.671875 66.191406 159.144531 75.585938 163.65625 87.222656 C 164.058594 88.25 164.453125 89.28125 164.84375 90.300781 C 169.125 101.503906 172.402344 111.808594 174.871094 121.792969 C 175.324219 123.617188 175.757812 125.421875 176.1875 127.21875 C 178.136719 135.324219 179.976562 142.984375 183.089844 150.644531 C 183.519531 151.703125 183.972656 152.757812 184.441406 153.78125 C 188.113281 161.828125 193.667969 170.035156 200.964844 178.175781 C 208.039062 186.066406 217.222656 194.558594 229.035156 204.128906 C 230.195312 205.070312 231.265625 205.925781 232.296875 206.738281 C 239.148438 212.128906 245.007812 216.132812 250.730469 219.355469 C 258.929688 223.972656 266.804688 227.007812 274.808594 228.640625 C 284.09375 230.539062 293.613281 230.246094 301.609375 227.816406 L 301.734375 228.230469 C 297.183594 229.613281 292.140625 230.308594 286.929688 230.3125 Z M 286.933594 230.292969 " fill-opacity="1" fill-rule="nonzero"/><path fill="#ff7cde" d="M 282.136719 229.558594 C 278.484375 229.558594 274.757812 229.257812 271.023438 228.648438 C 262.707031 227.308594 254.628906 224.667969 246.328125 220.582031 C 240.085938 217.511719 233.886719 213.664062 227.375 208.8125 C 226.296875 208.007812 225.191406 207.164062 224.09375 206.300781 C 213.414062 197.929688 204.023438 188.777344 196.953125 179.828125 C 190.125 171.191406 185.039062 162.230469 181.832031 153.207031 C 181.433594 152.082031 181.042969 150.910156 180.683594 149.738281 C 178.066406 141.246094 176.792969 132.796875 175.445312 123.851562 C 175.152344 121.910156 174.855469 119.957031 174.546875 118 C 172.605469 105.664062 170.074219 95.21875 166.578125 85.121094 C 166.226562 84.101562 165.863281 83.082031 165.492188 82.058594 C 161.660156 71.5625 156.933594 62.152344 151.453125 54.082031 C 144.210938 43.390625 135.023438 34.046875 124.152344 26.324219 C 116.851562 21.125 109.054688 16.828125 100.984375 13.546875 C 97.046875 11.945312 92.953125 10.523438 88.820312 9.3125 C 76.230469 5.65625 61.640625 3.71875 45.453125 3.546875 C 30.925781 3.394531 16.3125 4.574219 1.378906 5.910156 L 1.339844 5.480469 C 16.289062 4.148438 30.910156 2.964844 45.457031 3.113281 C 61.683594 3.285156 76.3125 5.230469 88.941406 8.898438 C 93.089844 10.105469 97.195312 11.539062 101.144531 13.144531 C 109.25 16.441406 117.070312 20.757812 124.402344 25.972656 C 135.3125 33.726562 144.53125 43.101562 151.804688 53.839844 C 157.308594 61.9375 162.046875 71.382812 165.890625 81.910156 C 166.265625 82.933594 166.625 83.957031 166.980469 84.976562 C 170.488281 95.097656 173.027344 105.570312 174.972656 117.929688 C 175.28125 119.890625 175.578125 121.839844 175.867188 123.785156 C 177.214844 132.714844 178.484375 141.152344 181.089844 149.613281 C 181.449219 150.785156 181.835938 151.949219 182.234375 153.066406 C 185.425781 162.046875 190.492188 170.960938 197.285156 179.5625 C 204.339844 188.488281 213.699219 197.617188 224.355469 205.96875 C 225.449219 206.824219 226.546875 207.667969 227.628906 208.46875 C 234.121094 213.300781 240.296875 217.140625 246.519531 220.199219 C 254.785156 224.265625 262.816406 226.894531 271.089844 228.230469 C 280.320312 229.726562 289.484375 229.351562 297.59375 227.160156 L 297.707031 227.570312 C 292.820312 228.894531 287.558594 229.558594 282.136719 229.558594 Z M 282.136719 229.558594 " fill-opacity="1" fill-rule="nonzero"/><path fill="#ff7cde" d="M 276.867188 228.820312 C 273.699219 228.820312 270.503906 228.632812 267.316406 228.25 C 258.835938 227.238281 250.363281 224.953125 242.132812 221.453125 C 235.492188 218.628906 228.957031 214.964844 222.707031 210.566406 C 221.613281 209.796875 220.507812 208.988281 219.414062 208.160156 C 209.183594 200.417969 200.136719 191.101562 193.25 181.210938 C 186.890625 172.078125 182.304688 162.410156 179.609375 152.476562 C 179.273438 151.246094 178.957031 149.972656 178.664062 148.6875 C 176.535156 139.28125 175.804688 129.503906 175.09375 120.046875 C 174.941406 118.070312 174.796875 116.097656 174.632812 114.117188 C 173.8125 103.941406 172.464844 91.910156 168.699219 79.800781 C 168.378906 78.769531 168.042969 77.746094 167.707031 76.757812 C 164.3125 66.84375 159.453125 57.65625 153.269531 49.445312 C 145.5625 39.203125 135.71875 30.328125 124.011719 23.078125 C 116.386719 18.351562 108.246094 14.472656 99.808594 11.5625 C 95.8125 10.183594 91.652344 8.957031 87.445312 7.921875 C 74.765625 4.808594 60.726562 3.199219 44.519531 3.003906 C 30.445312 2.835938 16.527344 3.703125 1.089844 4.765625 L 1.0625 4.335938 C 16.503906 3.269531 30.4375 2.402344 44.523438 2.570312 C 60.761719 2.761719 74.835938 4.378906 87.542969 7.503906 C 91.769531 8.539062 95.941406 9.769531 99.945312 11.152344 C 108.414062 14.074219 116.582031 17.964844 124.234375 22.707031 C 135.988281 29.992188 145.867188 38.898438 153.609375 49.1875 C 159.824219 57.429688 164.703125 66.65625 168.109375 76.613281 C 168.453125 77.609375 168.785156 78.636719 169.105469 79.675781 C 172.882812 91.820312 174.234375 103.886719 175.058594 114.082031 C 175.222656 116.0625 175.367188 118.042969 175.515625 120.015625 C 176.222656 129.457031 176.957031 139.21875 179.082031 148.59375 C 179.371094 149.875 179.683594 151.144531 180.019531 152.363281 C 182.703125 162.253906 187.273438 171.875 193.601562 180.96875 C 200.460938 190.820312 209.476562 200.105469 219.675781 207.816406 C 220.765625 208.640625 221.871094 209.445312 222.953125 210.214844 C 229.179688 214.597656 235.6875 218.246094 242.296875 221.058594 C 250.496094 224.539062 258.925781 226.820312 267.367188 227.828125 C 276.351562 228.902344 285.414062 228.445312 293.578125 226.507812 L 293.679688 226.921875 C 288.363281 228.183594 282.671875 228.820312 276.867188 228.820312 Z M 276.867188 228.820312 " fill-opacity="1" fill-rule="nonzero"/><g clip-path="url(#202adc1d37)"><path fill="#ff7cde" d="M 270.863281 228.160156 C 252.222656 228.160156 233.683594 222.699219 218.042969 212.3125 C 197.132812 198.429688 182.3125 176.347656 177.382812 151.738281 C 175.03125 140 174.914062 127.746094 174.792969 115.890625 C 174.640625 101.058594 174.488281 85.71875 169.929688 71.4375 C 160.808594 42.875 134.160156 19.742188 98.640625 9.558594 C 66.777344 0.429688 33.246094 2.042969 0.816406 3.613281 L 0.796875 3.183594 C 33.253906 1.617188 66.824219 -0.00390625 98.753906 9.152344 C 115.1875 13.863281 130.363281 21.71875 142.640625 31.863281 C 156.054688 42.949219 165.628906 56.585938 170.332031 71.3125 C 174.914062 85.652344 175.066406 101.023438 175.214844 115.890625 C 175.335938 127.722656 175.457031 139.960938 177.800781 151.65625 C 182.707031 176.160156 197.457031 198.140625 218.273438 211.957031 C 239.09375 225.777344 265.074219 230.84375 289.558594 225.855469 L 289.644531 226.277344 C 283.445312 227.539062 277.144531 228.160156 270.859375 228.160156 Z M 270.863281 228.160156 " fill-opacity="1" fill-rule="nonzero"/></g></svg>