<svg xmlns="http://www.w3.org/2000/svg" xmlns:xlink="http://www.w3.org/1999/xlink" width="500" zoomAndPan="magnify" viewBox="0 0 375 374.999991" height="500" preserveAspectRatio="xMidYMid meet" version="1.0"><defs><g/><clipPath id="8713636cdf"><path d="M 58.59375 0 L 316.40625 0 C 348.765625 0 375 26.234375 375 58.59375 L 375 316.40625 C 375 348.765625 348.765625 375 316.40625 375 L 58.59375 375 C 26.234375 375 0 348.765625 0 316.40625 L 0 58.59375 C 0 26.234375 26.234375 0 58.59375 0 Z M 58.59375 0 " clip-rule="nonzero"/></clipPath></defs><g clip-path="url(#8713636cdf)"><rect x="-37.5" width="450" fill="#6a00ff" y="-37.499999" height="449.999989" fill-opacity="1"/></g><path stroke-linecap="butt" transform="matrix(4.313073, 0, 0, 4.313073, 150.588803, 69.788302)" fill="none" stroke-linejoin="miter" d="M 30.601245 25.455126 C 32.797511 26.003966 34.479353 27.101646 35.647676 28.749072 C 36.815093 30.388347 37.399255 32.645293 37.399255 35.521722 C 37.399255 37.535041 36.954568 39.291149 36.066099 40.790043 C 35.176724 42.288938 33.935041 43.457261 32.340145 44.294107 C 30.753399 45.121895 28.923027 45.535789 26.849027 45.535789 C 25.42802 45.535789 24.181809 45.24869 23.109488 44.673585 C 22.038072 44.089424 21.165906 43.274315 20.494799 42.228258 C 19.823693 41.182202 19.375383 39.962255 19.148058 38.567513 L 24.064071 38.567513 C 25.885387 38.567513 27.223977 38.170826 28.07803 37.378359 C 28.940234 36.584987 29.372242 35.521722 29.372242 34.18766 C 29.372242 32.863561 28.961971 31.800297 28.143239 30.997867 C 27.323602 30.196343 26.142599 29.795128 24.600232 29.795128 L 19.148058 29.795128 L 19.148058 34.985562 C 19.148058 37.983351 18.450687 40.445886 17.05685 42.372261 C 15.662108 44.298635 13.679582 45.531261 11.108366 46.07195 L 11.108366 9.661935 C 11.108366 8.947356 11.465203 8.589614 12.179781 8.589614 L 22.573327 8.589614 C 26.531134 8.589614 29.581454 9.426459 31.72519 11.10015 C 33.869833 12.764784 34.941248 15.139468 34.941248 18.225109 C 34.941248 19.84627 34.553619 21.310749 33.777454 22.617641 C 33.002194 23.916381 31.943458 24.861907 30.601245 25.455126 Z M 19.148058 23.363012 L 22.573327 23.363012 C 24.124751 23.363012 25.262281 23.027006 25.985917 22.3559 C 26.709553 21.676642 27.070918 20.691266 27.070918 19.401583 C 27.070918 18.138164 26.717704 17.179052 26.012182 16.525153 C 25.305754 15.872161 24.160073 15.545211 22.573327 15.545211 L 19.148058 15.545211 Z M 19.148058 23.363012 " stroke="#000000" stroke-width="2.878527" stroke-opacity="1" stroke-miterlimit="4"/><g fill="#ff7cde" fill-opacity="1"><g transform="translate(186.036875, 263.876601)"><g><path d="M 96.546875 -84.296875 C 106.015625 -81.910156 113.269531 -77.175781 118.3125 -70.09375 C 123.351562 -63.007812 125.875 -53.269531 125.875 -40.875 C 125.875 -32.175781 123.945312 -24.59375 120.09375 -18.125 C 116.25 -11.664062 110.898438 -6.644531 104.046875 -3.0625 C 97.191406 0.519531 89.300781 2.3125 80.375 2.3125 C 74.21875 2.3125 68.828125 1.0625 64.203125 -1.4375 C 59.585938 -3.945312 55.835938 -7.453125 52.953125 -11.953125 C 50.066406 -16.453125 48.125 -21.707031 47.125 -27.71875 L 68.359375 -27.71875 C 76.210938 -27.71875 81.988281 -29.429688 85.6875 -32.859375 C 89.382812 -36.285156 91.234375 -40.882812 91.234375 -46.65625 C 91.234375 -52.351562 89.460938 -56.929688 85.921875 -60.390625 C 82.378906 -63.859375 77.296875 -65.59375 70.671875 -65.59375 L 47.125 -65.59375 L 47.125 -43.1875 C 47.125 -30.257812 44.117188 -19.632812 38.109375 -11.3125 C 32.109375 -3 23.5625 2.3125 12.46875 4.625 L 12.46875 -152.4375 C 12.46875 -155.519531 14.007812 -157.0625 17.09375 -157.0625 L 61.90625 -157.0625 C 78.988281 -157.0625 92.148438 -153.460938 101.390625 -146.265625 C 110.628906 -139.066406 115.25 -128.804688 115.25 -115.484375 C 115.25 -108.472656 113.570312 -102.15625 110.21875 -96.53125 C 106.875 -90.914062 102.316406 -86.835938 96.546875 -84.296875 Z M 47.125 -93.3125 L 61.90625 -93.3125 C 68.601562 -93.3125 73.507812 -94.773438 76.625 -97.703125 C 79.738281 -100.628906 81.296875 -104.863281 81.296875 -110.40625 C 81.296875 -115.875 79.773438 -120.007812 76.734375 -122.8125 C 73.691406 -125.625 68.75 -127.03125 61.90625 -127.03125 L 47.125 -127.03125 Z M 47.125 -93.3125 "/></g></g></g><path stroke-linecap="butt" transform="matrix(3.014248, 0.850692, -0.850692, 3.014248, 69.912965, 76.62852)" fill="none" stroke-linejoin="miter" d="M 19.887535 47.249625 C 17.021035 47.249959 14.855213 46.45901 13.388531 44.875916 C 11.921849 43.292822 11.188788 41.168333 11.189009 38.50125 C 11.18957 37.001702 11.40944 35.177187 11.851359 33.028226 L 15.025404 18.381337 C 15.092398 18.113611 15.250021 17.368029 15.500674 16.143912 C 15.758896 14.909884 15.888263 13.577445 15.888096 12.144195 C 15.888703 11.319813 15.724861 10.702537 15.401186 10.294953 C 15.083852 9.886876 14.650391 9.682635 14.100803 9.68223 C 13.075805 9.682517 11.881169 10.169999 10.514157 11.144153 C 9.147513 12.110428 7.71407 13.602264 6.21469 15.61812 C 5.740091 16.269139 5.210869 16.593448 4.627701 16.593449 C 4.15349 16.593802 3.736215 16.364258 3.377414 15.905679 C 3.020181 15.438881 2.841119 14.919208 2.84075 14.34392 C 2.840058 13.285342 3.319156 12.090059 4.277706 10.756872 C 7.752559 5.983004 11.830966 3.595666 16.513267 3.596057 C 18.588103 3.59625 20.211698 4.229205 21.386792 5.495446 C 22.570134 6.754175 23.161693 8.611464 23.162147 11.069713 C 23.160978 12.810475 23.041011 14.414998 22.799169 15.881558 C 22.566068 17.346948 22.157366 19.342686 21.573924 21.867233 L 19.475189 31.227799 C 19.408232 31.536983 19.28739 32.086868 19.112661 32.877451 C 18.94618 33.660524 18.808101 34.401886 18.699963 35.1024 C 18.600566 35.801743 18.549676 36.493877 18.550555 37.176583 C 18.550113 38.26788 18.858072 39.138658 19.474431 39.788917 C 20.090819 40.430097 20.96179 40.751906 22.086327 40.750741 C 24.136663 40.751368 26.210402 39.659402 28.310621 37.476567 C 30.409639 35.29407 32.355196 31.773423 34.14643 26.916167 C 35.938032 22.05103 37.325259 15.826547 38.30879 8.245118 C 38.550834 6.503763 38.900628 5.295728 39.358172 4.621013 C 39.824825 3.937247 40.721237 3.596135 42.045529 3.595616 C 43.245783 3.596409 44.132057 3.954073 44.707429 4.670329 C 45.29068 5.386953 45.582464 6.544809 45.581919 8.145434 C 45.582189 9.069355 45.469486 10.281754 45.245009 11.782291 C 45.028072 13.281997 44.699042 15.380954 44.257057 18.080703 C 43.332737 23.295903 42.595824 28.091465 42.045641 32.464987 C 41.778857 34.440112 41.645634 35.905824 41.645448 36.864863 C 41.64521 38.264534 41.957847 39.330972 42.58336 40.06418 C 43.216414 40.796555 44.0612 41.163335 45.120117 41.163844 C 46.244993 41.16388 47.344355 40.788817 48.419404 40.038318 C 49.493591 39.289358 50.768285 38.043194 52.244163 36.302227 C 52.651723 35.826936 53.109736 35.590112 53.617526 35.589354 C 54.059696 35.590268 54.4099 35.793384 54.667954 36.20264 C 54.92687 36.610358 55.055769 37.172698 55.055852 37.889323 C 55.055142 39.223034 54.730162 40.280218 54.080391 41.063614 C 52.3063 43.212725 50.547783 44.783345 48.80604 45.775134 C 47.065866 46.758705 45.241279 47.25032 43.33228 47.249978 C 40.49936 47.249907 38.330071 46.524733 36.822012 45.075133 C 35.321833 43.625902 34.571544 41.743431 34.572005 39.42618 C 34.571921 38.126388 34.846989 35.602043 35.39721 31.853148 C 33.688212 36.868626 31.526512 40.688724 28.91057 43.31258 C 26.302847 45.938005 23.294543 47.249666 19.887535 47.249625 Z M 19.887535 47.249625 " stroke="#000000" stroke-width="3.455514" stroke-opacity="1" stroke-miterlimit="4"/><g fill="#ffffff" fill-opacity="1"><g transform="translate(38.64352, 220.757192)"><g><path d="M 51.015625 15.21875 C 42.367188 12.78125 36.507812 8.546875 33.4375 2.515625 C 30.363281 -3.515625 29.960938 -10.539062 32.234375 -18.5625 C 33.503906 -23.09375 35.722656 -28.40625 38.890625 -34.5 L 60.921875 -75.921875 C 61.347656 -76.691406 62.46875 -78.816406 64.28125 -82.296875 C 66.101562 -85.785156 67.625 -89.691406 68.84375 -94.015625 C 69.539062 -96.484375 69.570312 -98.472656 68.9375 -99.984375 C 68.3125 -101.492188 67.179688 -102.484375 65.546875 -102.953125 C 62.453125 -103.816406 58.429688 -103.363281 53.484375 -101.59375 C 48.546875 -99.820312 42.957031 -96.546875 36.71875 -91.765625 C 34.71875 -90.210938 32.847656 -89.679688 31.109375 -90.171875 C 29.660156 -90.578125 28.59375 -91.625 27.90625 -93.3125 C 27.226562 -95.007812 27.132812 -96.738281 27.625 -98.5 C 28.53125 -101.6875 30.988281 -104.878906 35 -108.078125 C 49.550781 -119.503906 63.867188 -123.234375 77.953125 -119.265625 C 84.234375 -117.492188 88.609375 -114.203125 91.078125 -109.390625 C 93.554688 -104.578125 93.75 -98.46875 91.65625 -91.0625 C 90.175781 -85.820312 88.457031 -81.085938 86.5 -76.859375 C 84.539062 -72.640625 81.601562 -66.976562 77.6875 -59.875 L 63.40625 -33.40625 C 62.9375 -32.550781 62.109375 -31.007812 60.921875 -28.78125 C 59.742188 -26.5625 58.703125 -24.4375 57.796875 -22.40625 C 56.898438 -20.382812 56.160156 -18.347656 55.578125 -16.296875 C 54.648438 -13.003906 54.832031 -10.117188 56.125 -7.640625 C 57.425781 -5.171875 59.773438 -3.457031 63.171875 -2.5 C 69.347656 -0.757812 76.53125 -2.285156 84.71875 -7.078125 C 92.90625 -11.878906 101.765625 -20.847656 111.296875 -33.984375 C 120.828125 -47.117188 130.3125 -64.679688 139.75 -86.671875 C 141.9375 -91.710938 144.015625 -95.066406 145.984375 -96.734375 C 147.953125 -98.398438 150.945312 -98.664062 154.96875 -97.53125 C 158.5625 -96.507812 160.925781 -94.671875 162.0625 -92.015625 C 163.207031 -89.367188 163.097656 -85.628906 161.734375 -80.796875 C 160.953125 -78.023438 159.585938 -74.46875 157.640625 -70.125 C 155.691406 -65.789062 152.90625 -59.742188 149.28125 -51.984375 C 142.0625 -37.035156 135.769531 -23.207031 130.40625 -10.5 C 127.90625 -4.769531 126.25 -0.46875 125.4375 2.40625 C 124.25 6.632812 124.289062 10.117188 125.5625 12.859375 C 126.84375 15.609375 129.078125 17.429688 132.265625 18.328125 C 135.660156 19.285156 139.296875 19.09375 143.171875 17.75 C 147.046875 16.40625 151.941406 13.734375 157.859375 9.734375 C 159.484375 8.640625 161.070312 8.3125 162.625 8.75 C 163.957031 9.125 164.835938 10.035156 165.265625 11.484375 C 165.691406 12.941406 165.597656 14.753906 164.984375 16.921875 C 163.847656 20.929688 161.96875 23.84375 159.34375 25.65625 C 152.164062 30.613281 145.535156 33.84375 139.453125 35.34375 C 133.367188 36.851562 127.441406 36.796875 121.671875 35.171875 C 113.140625 32.765625 107.226562 28.734375 103.9375 23.078125 C 100.644531 17.429688 99.988281 11.109375 101.96875 4.109375 C 103.0625 0.203125 106.03125 -7.171875 110.875 -18.015625 C 101.457031 -4.359375 91.695312 5.316406 81.59375 11.015625 C 71.488281 16.722656 61.296875 18.125 51.015625 15.21875 Z M 51.015625 15.21875 "/></g></g></g></svg>